<?xml version="1.0" encoding="utf-8"?>
<svg viewBox="50.828 50 114.029 81.361" xmlns="http://www.w3.org/2000/svg">
  <path d="M163.1 78.5475C165.443 80.8907 165.443 84.6897 163.1 87.0328L120.529 129.604C118.186 131.947 114.387 131.947 112.044 129.604L85.2535 102.814C82.9103 100.471 82.9103 96.6718 85.2535 94.3286L127.825 51.7574C130.168 49.4142 133.967 49.4142 136.31 51.7574L163.1 78.5475Z" style="fill: rgb(42, 58, 83);"/>
  <path d="M130.432 78.5475C132.775 80.8907 132.775 84.6897 130.432 87.0328L87.8609 129.604C85.5178 131.947 81.7188 131.947 79.3756 129.604L52.5855 102.814C50.2423 100.471 50.2423 96.6718 52.5855 94.3286L95.1568 51.7574C97.4999 49.4142 101.299 49.4142 103.642 51.7574L130.432 78.5475Z" style="fill: rgb(76, 86, 131); fill-opacity: 0.87; paint-order: stroke; fill-rule: nonzero;"/>
</svg>