<svg id="svg" version="1.1" xmlns="http://www.w3.org/2000/svg" xmlns:xlink="http://www.w3.org/1999/xlink" width="400" height="400" viewBox="0, 0, 400,400"><g id="svgg"><path id="path0" d="M147.333 162.500 L 147.333 215.000 200.000 215.000 L 252.667 215.000 252.667 162.500 L 252.667 110.000 200.000 110.000 L 147.333 110.000 147.333 162.500 M247.333 162.500 L 247.333 210.000 200.000 210.000 L 152.667 210.000 152.667 162.500 L 152.667 115.000 200.000 115.000 L 247.333 115.000 247.333 162.500 M171.592 136.520 C 170.233 137.257,170.000 137.983,170.000 141.478 L 170.000 144.667 200.000 144.667 L 230.000 144.667 229.993 141.417 C 229.985 137.964,229.693 137.184,228.105 136.372 C 226.871 135.741,172.766 135.882,171.592 136.520 M170.000 167.433 C 170.000 183.141,170.097 188.297,170.400 188.600 C 170.980 189.180,229.020 189.180,229.600 188.600 C 229.903 188.297,230.000 183.141,230.000 167.433 L 230.000 146.667 200.000 146.667 L 170.000 146.667 170.000 167.433 M192.644 160.811 L 196.779 164.955 192.674 168.894 C 188.581 172.822,187.317 173.567,187.055 172.205 C 186.971 171.769,187.963 170.545,190.301 168.199 L 193.668 164.821 190.645 161.827 C 187.330 158.545,186.904 157.971,187.204 157.191 C 187.618 156.110,188.620 156.777,192.644 160.811 M214.131 171.770 C 214.958 173.120,213.794 173.333,205.581 173.333 C 197.189 173.333,195.250 172.861,196.894 171.217 C 197.485 170.626,213.750 171.148,214.131 171.770 M207.000 253.026 C 200.559 255.935,197.902 268.301,201.995 276.324 C 206.510 285.174,219.184 283.417,221.512 273.618 C 221.694 272.851,218.267 270.781,217.849 271.405 C 217.814 271.457,217.530 272.190,217.217 273.033 C 215.516 277.629,210.672 279.379,207.654 276.488 C 204.067 273.051,204.067 261.282,207.654 257.845 C 210.809 254.823,215.756 256.903,216.689 261.644 L 217.087 263.667 219.210 263.667 L 221.333 263.667 221.333 258.167 L 221.333 252.667 219.167 252.667 L 217.000 252.667 217.000 254.045 L 217.000 255.423 216.276 254.503 C 214.595 252.365,210.060 251.643,207.000 253.026 M95.000 267.000 L 95.000 281.333 97.297 281.333 L 99.594 281.333 99.728 275.250 C 99.893 267.744,100.793 265.530,104.032 264.658 C 107.978 263.596,108.656 264.976,108.662 274.083 L 108.667 281.333 111.202 281.333 L 113.737 281.333 113.587 273.583 C 113.403 264.102,112.945 262.502,109.985 260.992 C 106.561 259.245,102.040 260.715,100.221 264.167 C 99.723 265.111,99.693 264.819,99.680 258.917 L 99.667 252.667 97.333 252.667 L 95.000 252.667 95.000 267.000 M150.667 254.667 L 150.667 256.667 152.833 256.667 L 155.000 256.667 155.000 267.000 L 155.000 277.333 152.833 277.333 L 150.667 277.333 150.667 279.333 L 150.667 281.333 157.667 281.333 L 164.667 281.333 164.667 279.333 L 164.667 277.333 162.333 277.333 L 160.000 277.333 160.000 265.000 L 160.000 252.667 155.333 252.667 L 150.667 252.667 150.667 254.667 M231.000 254.667 L 231.000 256.667 233.167 256.667 L 235.333 256.667 235.333 267.000 L 235.333 277.333 233.167 277.333 L 231.000 277.333 231.000 279.333 L 231.000 281.333 238.000 281.333 L 245.000 281.333 245.000 279.333 L 245.000 277.333 242.667 277.333 L 240.333 277.333 240.333 265.000 L 240.333 252.667 235.667 252.667 L 231.000 252.667 231.000 254.667 M318.333 254.667 L 318.333 256.667 320.333 256.667 L 322.333 256.667 322.333 259.552 C 322.333 262.301,322.305 262.411,321.738 261.898 C 317.788 258.323,310.431 260.840,308.359 266.474 C 304.864 275.979,313.491 285.842,320.970 280.893 C 322.260 280.039,322.333 280.027,322.333 280.662 C 322.333 281.275,322.550 281.333,324.833 281.333 L 327.333 281.333 327.333 267.000 L 327.333 252.667 322.833 252.667 L 318.333 252.667 318.333 254.667 M73.108 260.793 C 68.702 262.234,66.730 265.619,68.268 269.098 C 69.392 271.638,70.997 272.380,78.454 273.805 C 82.459 274.570,83.558 275.584,81.845 276.931 C 79.953 278.420,74.362 278.039,70.675 276.171 C 69.717 275.686,68.892 275.336,68.840 275.394 C 68.640 275.621,67.000 278.989,67.000 279.174 C 67.000 279.282,67.813 279.730,68.806 280.169 C 76.795 283.702,86.222 281.984,87.191 276.819 C 88.066 272.157,85.654 269.978,78.167 268.666 C 73.927 267.924,72.667 267.389,72.667 266.334 C 72.667 264.282,79.419 263.818,83.062 265.621 L 84.360 266.263 85.341 264.548 L 86.322 262.833 85.635 262.312 C 83.420 260.633,76.254 259.764,73.108 260.793 M127.667 260.626 C 118.349 263.679,117.441 276.786,126.255 281.023 C 129.730 282.694,135.913 282.198,138.938 280.007 C 140.613 278.793,140.629 278.646,139.269 276.881 C 138.684 276.122,138.158 275.437,138.101 275.360 C 138.044 275.283,137.660 275.526,137.249 275.901 C 133.300 279.498,125.000 277.540,125.000 273.013 C 125.000 272.782,127.853 272.667,133.546 272.667 L 142.091 272.667 141.920 270.537 C 141.351 263.449,134.209 258.483,127.667 260.626 M260.531 260.863 C 256.596 262.116,253.853 266.434,253.878 271.333 C 253.951 285.430,274.619 285.913,275.260 271.833 C 275.641 263.474,268.660 258.275,260.531 260.863 M175.000 265.167 L 175.000 269.333 177.167 269.333 L 179.333 269.333 179.333 267.167 L 179.333 265.000 182.885 265.000 L 186.437 265.000 185.802 265.750 C 185.453 266.162,183.884 267.850,182.316 269.500 C 180.747 271.150,178.459 273.562,177.232 274.860 L 175.000 277.220 175.000 279.277 L 175.000 281.333 184.333 281.333 L 193.667 281.333 193.667 277.333 L 193.667 273.333 191.500 273.333 L 189.333 273.333 189.333 275.333 L 189.333 277.333 185.431 277.333 L 181.528 277.333 182.865 275.917 C 183.601 275.137,186.182 272.426,188.602 269.892 L 193.000 265.283 193.000 263.142 L 193.000 261.000 184.000 261.000 L 175.000 261.000 175.000 265.167 M282.000 268.352 C 282.000 276.496,282.227 277.981,283.755 279.835 C 286.474 283.134,292.384 282.712,294.704 279.053 L 295.667 277.536 295.667 279.435 L 295.667 281.333 298.167 281.333 L 300.667 281.333 300.667 271.167 L 300.667 261.000 298.193 261.000 L 295.719 261.000 295.609 267.250 C 295.467 275.409,294.332 277.682,290.350 277.787 C 287.051 277.873,286.671 276.836,286.669 267.750 L 286.667 261.000 284.333 261.000 L 282.000 261.000 282.000 268.352 M134.000 265.181 C 135.071 265.724,136.194 266.960,136.484 267.917 L 136.712 268.667 131.022 268.667 C 124.722 268.667,124.583 268.609,126.203 266.685 C 128.054 264.485,131.364 263.847,134.000 265.181 M266.167 264.700 C 273.741 266.759,270.933 279.411,263.283 277.692 C 257.186 276.323,256.996 266.095,263.041 264.667 C 264.620 264.294,264.679 264.295,266.167 264.700 M321.000 265.304 L 322.167 265.898 322.258 271.072 C 322.349 276.191,322.341 276.251,321.561 276.762 C 318.198 278.966,313.719 277.477,312.703 273.818 C 310.915 267.379,315.611 262.561,321.000 265.304 " stroke="none" fill="#344c6c" fill-rule="evenodd"></path><path id="path1" d="" stroke="none" fill="#384c6c" fill-rule="evenodd"></path><path id="path2" d="" stroke="none" fill="#384c6c" fill-rule="evenodd"></path><path id="path3" d="" stroke="none" fill="#384c6c" fill-rule="evenodd"></path><path id="path4" d="" stroke="none" fill="#384c6c" fill-rule="evenodd"></path></g></svg>