<?xml version="1.0" standalone="no"?>
<!DOCTYPE svg PUBLIC "-//W3C//DTD SVG 1.0//EN" "http://www.w3.org/TR/2001/REC-SVG-20010904/DTD/svg10.dtd">
<svg xmlns="http://www.w3.org/2000/svg" xmlns:xlink="http://www.w3.org/1999/xlink" id="body_1" width="700" height="700">

<g transform="matrix(1.75 0 0 1.75 0 0)">
	<g>
        <path d="M147.333 162.5L147.333 215L200 215L252.667 215L252.667 162.5L252.667 110L200 110L147.333 110L147.333 162.5zM247.333 162.5L247.333 210L200 210L152.667 210L152.667 162.5L152.667 115L200 115L247.333 115L247.333 162.5zM171.592 136.52C 170.233 137.257 170 137.983 170 141.478L170 141.478L170 144.667L200 144.667L230 144.667L229.993 141.417C 229.985 137.964 229.693 137.184 228.105 136.372C 226.871 135.741 172.766 135.882 171.592 136.52M170 167.433C 170 183.141 170.097 188.297 170.4 188.6C 170.98 189.18 229.02 189.18 229.6 188.6C 229.903 188.297 230 183.141 230 167.433L230 167.433L230 146.667L200 146.667L170 146.667L170 167.433zM192.644 160.811L196.779 164.955L192.674 168.894C 188.581 172.822 187.317 173.567 187.055 172.205C 186.971 171.769 187.963 170.545 190.301 168.199L190.301 168.199L193.668 164.821L190.645 161.827C 187.33 158.545 186.904 157.971 187.204 157.191C 187.618 156.11 188.62 156.777 192.644 160.811M214.131 171.77C 214.958 173.12 213.794 173.333 205.581 173.333C 197.189 173.333 195.25 172.861 196.894 171.217C 197.485 170.626 213.75 171.148 214.131 171.77M207 253.026C 200.559 255.935 197.902 268.301 201.995 276.324C 206.51 285.174 219.184 283.417 221.512 273.618C 221.694 272.851 218.267 270.781 217.849 271.405C 217.814 271.457 217.53 272.19 217.217 273.033C 215.516 277.629 210.672 279.379 207.654 276.488C 204.067 273.051 204.067 261.282 207.654 257.845C 210.809 254.823 215.756 256.903 216.689 261.644L216.689 261.644L217.087 263.667L219.21 263.667L221.333 263.667L221.333 258.167L221.333 252.667L219.167 252.667L217 252.667L217 254.045L217 255.423L216.276 254.503C 214.595 252.365 210.06 251.643 207 253.026M95 267L95 281.333L97.297 281.333L99.594 281.333L99.728 275.25C 99.893 267.744 100.793 265.53 104.032 264.658C 107.978 263.596 108.656 264.976 108.662 274.083L108.662 274.083L108.667 281.333L111.202 281.333L113.737 281.333L113.587 273.583C 113.403 264.102 112.945 262.502 109.985 260.992C 106.561 259.245 102.04 260.715 100.221 264.167C 99.723 265.111 99.693 264.819 99.68 258.917L99.68 258.917L99.667 252.667L97.333 252.667L95 252.667L95 267zM150.667 254.667L150.667 256.667L152.833 256.667L155 256.667L155 267L155 277.333L152.833 277.333L150.667 277.333L150.667 279.333L150.667 281.333L157.667 281.333L164.667 281.333L164.667 279.333L164.667 277.333L162.333 277.333L160 277.333L160 265L160 252.667L155.333 252.667L150.667 252.667L150.667 254.667zM231 254.667L231 256.667L233.167 256.667L235.333 256.667L235.333 267L235.333 277.333L233.167 277.333L231 277.333L231 279.333L231 281.333L238 281.333L245 281.333L245 279.333L245 277.333L242.667 277.333L240.333 277.333L240.333 265L240.333 252.667L235.667 252.667L231 252.667L231 254.667zM318.333 254.667L318.333 256.667L320.333 256.667L322.333 256.667L322.333 259.552C 322.333 262.301 322.305 262.411 321.738 261.898C 317.788 258.323 310.431 260.84 308.359 266.474C 304.864 275.979 313.491 285.842 320.97 280.893C 322.26 280.039 322.333 280.027 322.333 280.662C 322.333 281.275 322.55 281.333 324.833 281.333L324.833 281.333L327.333 281.333L327.333 267L327.333 252.667L322.833 252.667L318.333 252.667L318.333 254.667zM73.108 260.793C 68.702 262.234 66.73 265.619 68.268 269.098C 69.392 271.638 70.997 272.38 78.454 273.805C 82.459 274.57 83.558 275.584 81.845 276.931C 79.953 278.42 74.362 278.039 70.675 276.171C 69.717 275.686 68.892 275.336 68.84 275.394C 68.64 275.621 67 278.989 67 279.174C 67 279.282 67.813 279.73 68.806 280.169C 76.795 283.702 86.222 281.984 87.191 276.819C 88.066 272.157 85.654 269.978 78.167 268.666C 73.927 267.924 72.667 267.389 72.667 266.334C 72.667 264.282 79.419 263.818 83.062 265.621L83.062 265.621L84.36 266.263L85.341 264.548L86.322 262.833L85.635 262.312C 83.42 260.633 76.254 259.764 73.108 260.793M127.667 260.626C 118.349 263.679 117.441 276.786 126.255 281.023C 129.73 282.694 135.913 282.198 138.938 280.007C 140.613 278.793 140.629 278.646 139.269 276.881C 138.684 276.122 138.158 275.437 138.101 275.36C 138.044 275.283 137.66 275.526 137.249 275.901C 133.3 279.498 125 277.54 125 273.013C 125 272.782 127.853 272.667 133.546 272.667L133.546 272.667L142.091 272.667L141.92 270.537C 141.351 263.449 134.209 258.483 127.667 260.626M260.531 260.863C 256.596 262.116 253.853 266.434 253.878 271.333C 253.951 285.43 274.619 285.913 275.26 271.833C 275.641 263.474 268.66 258.275 260.531 260.863M175 265.167L175 269.333L177.167 269.333L179.333 269.333L179.333 267.167L179.333 265L182.885 265L186.437 265L185.802 265.75C 185.453 266.162 183.884 267.85 182.316 269.5C 180.747 271.15 178.459 273.562 177.232 274.86L177.232 274.86L175 277.22L175 279.277L175 281.333L184.333 281.333L193.667 281.333L193.667 277.333L193.667 273.333L191.5 273.333L189.333 273.333L189.333 275.333L189.333 277.333L185.431 277.333L181.528 277.333L182.865 275.917C 183.601 275.137 186.182 272.426 188.602 269.892L188.602 269.892L193 265.283L193 263.142L193 261L184 261L175 261L175 265.167zM282 268.352C 282 276.496 282.227 277.981 283.755 279.835C 286.474 283.134 292.384 282.712 294.704 279.053L294.704 279.053L295.667 277.536L295.667 279.435L295.667 281.333L298.167 281.333L300.667 281.333L300.667 271.167L300.667 261L298.193 261L295.719 261L295.609 267.25C 295.467 275.409 294.332 277.682 290.35 277.787C 287.051 277.873 286.671 276.836 286.669 267.75L286.669 267.75L286.667 261L284.333 261L282 261L282 268.352zM134 265.181C 135.071 265.724 136.194 266.96 136.484 267.917L136.484 267.917L136.712 268.667L131.022 268.667C 124.722 268.667 124.583 268.609 126.203 266.685C 128.054 264.485 131.364 263.847 134 265.181M266.167 264.7C 273.741 266.759 270.933 279.411 263.283 277.692C 257.186 276.323 256.996 266.095 263.041 264.667C 264.62 264.294 264.679 264.295 266.167 264.7M321 265.304L322.167 265.898L322.258 271.072C 322.349 276.191 322.341 276.251 321.561 276.762C 318.198 278.966 313.719 277.477 312.703 273.818C 310.915 267.379 315.611 262.561 321 265.304" stroke="none" fill="#344C6C" fill-rule="evenodd" />
        <path d="" stroke="none" fill="#384C6C" fill-rule="evenodd" />
        <path d="" stroke="none" fill="#384C6C" fill-rule="evenodd" />
        <path d="" stroke="none" fill="#384C6C" fill-rule="evenodd" />
        <path d="" stroke="none" fill="#384C6C" fill-rule="evenodd" />
	</g>
</g>
</svg>