<svg id="svg" version="1.1" xmlns="http://www.w3.org/2000/svg" xmlns:xlink="http://www.w3.org/1999/xlink" width="400" height="491.58249158249157" viewBox="0, 0, 400,491.58249158249157"><g id="svgg"><path id="path0" d="M199.855 31.823 C 199.005 32.134,195.135 34.258,191.255 36.542 C 187.375 38.826,182.346 41.753,180.079 43.047 C 177.813 44.341,174.933 46.013,173.679 46.761 C 169.307 49.372,164.569 52.130,160.200 54.605 C 157.780 55.976,153.730 58.316,151.200 59.804 C 148.670 61.292,143.000 64.574,138.600 67.098 C 134.200 69.622,130.420 71.831,130.200 72.007 C 129.980 72.183,126.200 74.390,121.800 76.911 C 117.400 79.432,111.190 83.022,108.000 84.888 C 91.529 94.524,87.177 97.057,84.800 98.397 C 80.802 100.649,72.033 105.735,69.800 107.097 C 68.700 107.768,65.862 109.452,63.493 110.839 C 57.850 114.144,56.674 115.162,55.325 117.908 L 54.200 120.200 53.897 187.600 C 53.730 224.670,53.640 263.370,53.697 273.600 L 53.800 292.200 54.739 294.088 C 55.819 296.261,57.858 298.234,60.650 299.806 C 61.723 300.409,64.220 301.849,66.200 303.005 C 69.772 305.090,76.206 308.785,81.200 311.619 C 82.630 312.431,85.960 314.352,88.600 315.889 C 98.048 321.389,104.229 324.953,106.000 325.922 C 106.990 326.464,109.465 327.873,111.500 329.054 C 113.535 330.234,116.865 332.166,118.900 333.346 C 120.935 334.526,124.760 336.752,127.400 338.292 C 130.040 339.832,134.270 342.272,136.800 343.715 C 142.527 346.979,150.243 351.420,155.100 354.247 C 165.226 360.140,169.882 362.820,176.200 366.397 C 178.400 367.642,182.450 369.974,185.200 371.579 C 205.517 383.434,203.499 383.250,218.200 374.591 C 221.500 372.647,225.460 370.336,227.000 369.456 C 228.540 368.575,232.860 366.061,236.600 363.868 C 240.340 361.675,244.750 359.117,246.400 358.184 C 248.050 357.251,251.470 355.277,254.000 353.798 C 256.530 352.318,260.850 349.804,263.600 348.210 C 271.909 343.396,276.427 340.773,280.000 338.691 C 281.870 337.601,286.910 334.687,291.200 332.216 C 295.490 329.744,299.900 327.172,301.000 326.500 C 303.686 324.859,324.291 312.907,329.800 309.795 C 344.486 301.498,350.243 297.815,351.880 295.669 C 354.310 292.482,354.171 297.961,354.186 205.000 L 354.200 119.400 353.334 117.800 C 351.603 114.602,351.015 114.204,331.800 103.206 C 324.732 99.160,316.678 94.503,313.800 92.797 C 312.260 91.885,308.930 89.957,306.400 88.513 C 296.274 82.734,293.201 80.970,288.600 78.294 C 278.438 72.383,276.471 71.245,272.400 68.917 C 266.812 65.721,259.746 61.647,248.600 55.196 C 243.540 52.267,237.510 48.793,235.200 47.476 C 232.890 46.159,229.110 44.004,226.800 42.688 C 224.490 41.371,221.700 39.752,220.600 39.089 C 207.033 30.916,204.627 30.073,199.855 31.823 M211.400 65.391 C 213.820 66.760,216.790 68.422,218.000 69.083 C 220.026 70.190,224.121 72.471,234.000 77.996 C 236.090 79.165,240.320 81.513,243.400 83.215 C 246.480 84.916,251.970 87.969,255.600 89.999 C 259.230 92.028,269.490 97.734,278.400 102.678 C 300.700 115.051,305.015 117.532,305.865 118.472 C 306.786 119.489,307.275 238.911,306.380 244.149 C 305.724 247.984,304.534 249.180,297.762 252.806 C 288.054 258.003,287.928 258.757,296.000 263.342 C 305.274 268.609,306.406 269.517,307.182 272.312 C 308.503 277.068,306.913 280.342,301.859 283.269 C 300.287 284.180,297.920 285.598,296.600 286.419 C 295.280 287.240,291.050 289.711,287.200 291.909 C 278.230 297.031,259.233 308.055,243.600 317.211 C 236.581 321.321,234.992 322.241,227.200 326.702 C 219.430 331.151,213.344 334.699,211.663 335.760 C 205.555 339.616,202.635 339.227,192.600 333.220 C 190.840 332.166,187.330 330.126,184.800 328.687 C 178.205 324.934,170.524 320.492,168.200 319.087 C 167.100 318.421,164.400 316.852,162.200 315.600 C 158.574 313.536,156.287 312.228,146.800 306.792 C 143.416 304.853,138.921 302.249,131.600 297.987 C 120.862 291.735,114.532 288.104,110.400 285.828 C 96.656 278.255,96.235 272.539,108.880 265.198 C 112.026 263.372,115.177 261.535,115.883 261.117 C 116.589 260.698,117.939 259.473,118.883 258.395 C 120.157 256.940,122.198 255.519,126.800 252.882 C 130.210 250.929,135.250 248.016,138.000 246.409 C 140.750 244.802,146.510 241.470,150.800 239.005 C 155.090 236.539,159.500 233.973,160.600 233.302 C 162.731 232.002,177.413 223.462,184.400 219.458 C 186.710 218.134,190.670 215.838,193.200 214.355 C 195.730 212.873,198.610 211.344,199.600 210.958 C 200.590 210.573,201.775 210.018,202.234 209.726 L 203.069 209.194 203.318 136.497 L 203.567 63.800 204.439 63.091 C 205.554 62.184,205.984 62.327,211.400 65.391 M52.089 411.823 L 51.200 412.445 51.200 429.774 C 51.200 448.835,51.110 448.158,53.642 448.086 C 55.899 448.022,55.932 447.892,56.072 438.674 C 56.238 427.691,56.870 426.399,62.080 426.401 C 67.637 426.402,68.529 428.059,68.796 438.881 C 69.017 447.838,69.094 448.133,71.206 448.133 C 73.569 448.133,73.786 447.499,73.927 440.164 C 74.221 424.895,70.230 419.599,61.269 423.371 C 56.946 425.191,56.000 424.018,56.000 416.836 C 56.000 412.212,55.569 411.200,53.600 411.200 C 53.258 411.200,52.578 411.480,52.089 411.823 M132.633 411.726 C 130.931 412.971,132.848 414.783,135.878 414.794 C 137.068 414.798,137.881 415.080,138.678 415.765 L 139.800 416.730 139.922 428.540 C 140.079 443.717,139.781 444.800,135.446 444.800 C 133.203 444.800,132.000 445.428,132.000 446.600 C 132.000 448.178,133.260 448.400,142.200 448.400 C 151.104 448.400,152.400 448.174,152.400 446.624 C 152.400 445.394,151.374 444.800,149.249 444.800 C 148.130 444.800,147.305 444.508,146.522 443.835 L 145.400 442.871 145.200 427.799 L 145.000 412.728 144.056 411.964 C 142.869 411.004,133.877 410.816,132.633 411.726 M251.038 411.722 C 249.595 412.778,250.362 414.160,252.600 414.534 C 258.458 415.514,258.000 414.255,258.000 429.381 C 258.000 444.544,257.926 444.800,253.555 444.800 C 250.527 444.800,249.008 447.091,251.426 448.010 C 253.250 448.703,268.869 448.507,269.911 447.777 C 271.606 446.590,270.294 444.800,267.730 444.800 C 263.458 444.800,263.419 444.646,263.286 427.400 C 263.149 409.548,263.828 411.200,256.632 411.200 C 253.248 411.200,251.534 411.360,251.038 411.722 M384.946 411.783 C 384.207 412.300,384.090 412.889,383.909 416.994 C 383.616 423.628,383.707 423.557,376.796 422.574 C 370.552 421.686,366.316 426.856,366.286 435.400 C 366.251 445.589,371.695 450.767,379.576 448.040 C 381.608 447.337,382.330 447.254,383.531 447.588 C 386.261 448.346,387.970 448.131,388.410 446.974 C 389.272 444.707,388.899 412.899,388.000 412.000 C 387.052 411.052,386.087 410.984,384.946 411.783 M215.666 413.563 C 205.504 417.073,203.671 440.381,213.049 446.834 C 219.619 451.354,231.589 447.390,231.599 440.691 C 231.602 437.942,228.109 438.416,226.300 441.411 C 222.770 447.256,215.087 445.872,213.128 439.040 C 212.501 436.851,212.495 425.101,213.120 422.960 C 215.156 415.984,222.559 414.481,226.274 420.289 C 228.505 423.776,231.600 424.221,231.600 421.054 C 231.600 415.364,222.644 411.153,215.666 413.563 M19.000 422.790 C 12.293 424.515,9.963 430.309,14.436 434.138 C 15.984 435.463,17.604 436.089,24.883 438.176 C 31.152 439.973,29.695 445.600,22.961 445.600 C 20.324 445.600,18.765 444.990,16.462 443.058 C 13.068 440.210,10.357 442.101,13.197 445.336 C 18.873 451.801,34.009 449.048,33.997 441.553 C 33.992 437.674,31.369 435.724,23.854 434.012 C 18.295 432.746,16.346 430.812,17.798 428.003 C 19.254 425.187,23.849 424.690,27.056 427.001 C 30.561 429.526,32.830 429.772,33.132 427.660 C 33.606 424.344,24.784 421.303,19.000 422.790 M97.879 422.978 C 87.479 426.687,86.652 442.810,96.617 447.584 C 100.776 449.576,107.965 448.955,110.748 446.363 C 112.911 444.348,110.963 443.114,107.524 444.321 C 102.253 446.173,97.536 444.658,96.007 440.622 C 94.879 437.645,96.795 436.914,105.891 436.847 C 114.300 436.786,114.768 436.265,112.539 429.447 C 110.769 424.033,103.685 420.907,97.879 422.978 M294.753 422.952 C 284.078 426.767,283.873 444.704,294.464 448.221 C 305.075 451.746,313.765 441.466,309.837 430.037 C 307.839 424.222,300.649 420.845,294.753 422.952 M170.238 423.322 C 167.772 425.126,170.467 426.786,175.874 426.794 C 184.603 426.807,184.610 427.788,175.948 437.487 C 166.398 448.180,166.500 448.400,181.000 448.400 C 190.402 448.400,192.085 448.199,192.536 447.022 C 193.173 445.362,191.527 444.800,186.026 444.800 C 176.167 444.800,176.092 443.930,185.078 433.881 C 192.222 425.892,193.167 424.253,191.226 423.214 C 190.013 422.565,171.141 422.662,170.238 423.322 M328.262 423.531 C 327.321 424.571,327.286 439.598,328.217 442.733 C 329.811 448.101,335.001 450.333,340.000 447.800 C 342.238 446.666,343.890 446.530,345.024 447.387 C 345.903 448.052,348.297 448.179,349.200 447.608 C 350.247 446.946,350.081 424.141,349.024 423.368 C 345.729 420.959,344.800 422.938,344.800 432.363 C 344.800 442.903,343.793 445.000,338.729 445.000 C 333.804 445.000,332.805 443.083,332.791 433.600 C 332.781 426.419,332.457 423.736,331.529 423.148 C 330.621 422.572,328.953 422.768,328.262 423.531 M105.087 427.068 C 106.675 427.822,107.999 429.705,107.992 431.200 C 107.982 433.389,106.653 434.002,101.926 433.994 C 97.358 433.987,96.243 433.528,96.091 431.591 C 95.781 427.639,100.884 425.074,105.087 427.068 M302.041 427.315 C 307.563 431.035,306.436 443.039,300.394 444.849 C 295.511 446.312,291.959 442.490,291.940 435.754 C 291.919 428.325,297.106 423.992,302.041 427.315 M381.081 427.184 C 384.878 429.499,385.095 441.022,381.396 443.932 C 375.166 448.832,368.313 438.373,372.400 430.201 C 374.186 426.629,377.998 425.305,381.081 427.184 " stroke="none" fill="#d7d7d8" fill-rule="evenodd"></path><path id="path1" d="M0.000 245.600 L 0.000 491.200 200.000 491.200 L 400.000 491.200 400.000 245.600 L 400.000 0.000 200.000 0.000 L 0.000 0.000 0.000 245.600 M208.492 29.083 C 210.069 29.714,219.244 34.834,220.234 35.637 C 220.473 35.830,221.913 36.679,223.434 37.522 C 227.425 39.735,241.415 47.746,246.600 50.787 C 253.310 54.722,260.204 58.694,273.100 66.054 C 277.365 68.489,280.151 70.101,289.400 75.487 C 297.889 80.432,300.148 81.734,302.800 83.213 C 305.514 84.726,312.293 88.642,320.800 93.609 C 323.550 95.215,329.940 98.905,335.000 101.810 C 340.060 104.715,345.820 108.025,347.800 109.166 C 352.142 111.669,354.474 113.862,355.919 116.800 L 357.000 119.000 357.103 138.400 C 357.159 149.070,357.069 188.220,356.903 225.400 L 356.600 293.000 355.622 295.000 C 354.208 297.891,351.108 300.660,345.981 303.612 C 343.509 305.035,340.387 306.850,339.043 307.644 C 337.700 308.438,332.550 311.428,327.600 314.288 C 322.650 317.149,314.730 321.740,310.000 324.491 C 305.270 327.243,298.520 331.155,295.000 333.186 C 291.480 335.217,286.440 338.145,283.800 339.694 C 278.112 343.029,273.273 345.845,267.800 349.005 C 265.600 350.275,262.270 352.221,260.400 353.331 C 258.530 354.440,254.120 357.003,250.600 359.027 C 247.080 361.050,242.580 363.657,240.600 364.818 C 235.941 367.552,225.438 373.625,221.600 375.806 C 219.950 376.743,217.520 378.170,216.200 378.976 C 210.104 382.700,208.174 383.400,204.018 383.395 C 199.927 383.389,199.671 383.305,194.400 380.212 C 192.119 378.873,188.207 376.597,179.518 371.551 C 176.723 369.928,172.533 367.520,170.208 366.200 C 164.045 362.701,156.100 358.095,153.800 356.686 C 152.700 356.013,150.450 354.710,148.800 353.791 C 145.820 352.131,143.368 350.732,135.912 346.439 C 125.969 340.713,121.646 338.202,119.800 337.081 C 118.700 336.413,116.183 334.978,114.206 333.893 C 112.229 332.808,110.159 331.605,109.606 331.220 C 109.053 330.834,107.160 329.745,105.400 328.800 C 103.640 327.855,100.760 326.234,99.000 325.198 C 97.240 324.162,94.000 322.274,91.800 321.002 C 89.600 319.730,85.730 317.477,83.200 315.994 C 80.670 314.512,76.569 312.152,74.086 310.750 C 71.604 309.347,68.004 307.284,66.086 306.165 C 64.169 305.045,61.374 303.455,59.875 302.631 C 56.734 300.904,53.292 297.643,52.211 295.370 C 50.775 292.352,50.718 287.757,51.062 202.800 L 51.400 119.400 52.472 117.112 C 53.978 113.900,56.332 111.802,62.473 108.199 C 65.403 106.480,68.880 104.409,70.200 103.597 C 71.520 102.784,75.750 100.322,79.600 98.125 C 83.450 95.929,89.300 92.555,92.600 90.627 C 95.900 88.699,101.120 85.670,104.200 83.897 C 107.280 82.124,111.060 79.915,112.600 78.990 C 114.140 78.064,118.334 75.617,121.920 73.553 C 125.506 71.489,130.546 68.568,133.120 67.062 C 135.694 65.556,139.150 63.561,140.800 62.630 C 142.450 61.699,146.500 59.344,149.800 57.397 C 153.100 55.449,157.150 53.098,158.800 52.172 C 160.450 51.245,163.870 49.273,166.400 47.790 C 168.930 46.306,174.420 43.116,178.600 40.701 C 182.780 38.285,188.180 35.133,190.600 33.695 C 199.818 28.216,203.774 27.197,208.492 29.083 M55.753 408.782 C 57.610 409.488,58.154 410.931,58.387 415.762 L 58.600 420.200 60.000 420.093 C 73.588 419.049,76.400 422.429,76.400 439.800 C 76.400 450.053,76.039 450.830,71.272 450.853 C 66.209 450.877,65.860 450.165,65.603 439.285 C 65.370 429.448,65.275 429.200,61.756 429.200 C 58.522 429.200,58.400 429.544,58.398 438.700 C 58.395 449.907,58.017 450.800,53.285 450.800 C 47.866 450.800,48.000 451.335,48.000 429.673 C 48.000 410.932,48.086 410.015,49.942 409.007 C 51.162 408.344,54.284 408.224,55.753 408.782 M144.903 408.828 C 146.966 409.769,146.986 409.913,147.200 426.115 C 147.421 442.834,147.267 441.982,150.074 441.994 C 155.017 442.014,157.211 448.173,153.096 450.478 C 152.048 451.065,137.470 451.451,133.285 451.002 C 125.939 450.216,126.633 442.000,134.046 442.000 C 136.815 442.000,136.800 442.068,136.800 429.449 C 136.800 416.746,136.945 417.200,132.880 417.200 C 128.242 417.200,126.459 411.167,130.444 408.958 C 131.645 408.292,143.493 408.186,144.903 408.828 M263.627 409.079 C 265.493 410.182,265.600 411.109,265.600 426.171 C 265.600 442.426,265.465 441.790,268.981 442.082 C 273.422 442.450,275.260 447.626,271.853 450.170 C 270.683 451.044,252.300 451.476,249.511 450.695 C 244.321 449.242,246.359 442.000,251.959 442.000 C 254.828 442.000,254.800 442.121,254.800 429.620 C 254.800 416.910,255.027 417.681,251.144 417.223 C 246.394 416.663,244.779 410.477,248.943 408.797 C 250.662 408.103,262.355 408.328,263.627 409.079 M388.808 409.004 C 390.802 410.035,390.800 410.011,390.800 429.555 C 390.800 452.256,391.135 451.142,384.444 450.667 C 381.686 450.472,380.465 450.558,379.132 451.042 C 370.162 454.300,362.649 446.204,363.316 434.000 C 363.829 424.629,368.312 419.753,376.299 419.880 C 381.059 419.956,380.643 420.430,380.936 414.600 C 381.035 412.620,381.246 410.680,381.406 410.288 C 382.117 408.536,386.450 407.785,388.808 409.004 M226.811 411.437 C 230.941 413.291,234.400 418.192,234.400 422.193 C 234.400 427.394,225.922 427.357,223.617 422.145 C 221.839 418.127,216.773 418.907,215.649 423.372 C 215.057 425.723,215.123 436.940,215.741 438.991 C 217.085 443.449,222.102 443.384,224.045 438.882 C 226.264 433.743,235.075 435.522,234.221 440.937 C 232.280 453.244,213.482 455.697,206.920 444.499 C 204.368 440.144,203.411 428.845,205.018 422.027 C 207.332 412.211,217.512 407.264,226.811 411.437 M29.343 420.666 C 36.051 423.200,38.405 430.408,32.974 431.787 C 30.544 432.404,30.522 432.734,32.800 434.453 C 43.097 442.223,30.815 455.281,17.147 451.095 C 9.009 448.603,4.988 438.841,12.080 438.794 C 14.115 438.780,14.151 438.186,12.233 436.295 C 3.099 427.291,15.908 415.591,29.343 420.666 M107.689 420.709 C 114.912 423.905,118.961 436.628,113.632 439.384 C 112.140 440.155,112.113 440.478,113.400 442.164 C 115.390 444.774,114.287 447.821,110.687 449.658 C 96.964 456.659,82.757 445.078,87.245 430.549 C 89.972 421.718,99.549 417.109,107.689 420.709 M304.858 420.950 C 310.522 423.629,312.600 427.562,312.600 435.600 C 312.600 443.671,310.489 447.738,304.995 450.254 C 292.994 455.748,281.654 445.944,283.949 432.058 C 285.585 422.159,295.867 416.697,304.858 420.950 M193.689 421.111 C 196.126 423.549,195.044 426.345,189.000 433.223 C 180.945 442.391,181.014 442.000,187.462 442.000 C 193.830 442.000,195.200 442.848,195.200 446.792 C 195.200 451.001,193.828 451.360,178.581 451.134 C 166.898 450.961,166.038 450.665,166.014 446.800 C 166.001 444.707,166.658 443.493,169.474 440.400 C 174.293 435.110,178.005 430.613,177.875 430.223 C 177.796 429.981,175.817 429.688,173.256 429.538 C 167.249 429.187,165.977 428.298,166.014 424.474 C 166.055 420.191,166.734 419.992,180.889 420.105 C 192.669 420.199,192.787 420.208,193.689 421.111 M333.171 420.585 C 334.878 421.468,334.954 421.891,335.186 431.736 C 335.430 442.157,335.635 442.759,338.767 442.250 C 341.676 441.778,341.776 441.445,342.000 431.490 C 342.252 420.271,342.562 419.684,348.015 420.079 C 352.360 420.393,352.180 419.761,352.316 435.226 L 352.431 448.430 351.246 449.615 C 349.934 450.927,346.314 451.286,343.674 450.366 C 342.646 450.007,342.025 450.086,340.114 450.816 C 334.050 453.134,328.415 450.875,325.741 445.055 C 324.454 442.255,323.774 426.610,324.777 422.885 C 325.498 420.209,330.038 418.965,333.171 420.585 M20.534 429.027 C 20.189 429.927,20.858 430.428,23.223 431.042 C 26.179 431.809,26.951 431.290,25.304 429.643 C 23.878 428.216,20.989 427.843,20.534 429.027 M100.042 429.566 C 99.735 429.760,99.594 430.207,99.729 430.560 C 100.023 431.324,103.385 431.471,103.838 430.739 C 104.499 429.669,101.395 428.709,100.042 429.566 M296.100 429.815 C 294.291 431.082,293.546 435.726,294.638 438.929 C 296.124 443.291,300.637 443.531,302.026 439.323 C 304.116 432.989,300.303 426.871,296.100 429.815 M375.525 429.973 C 371.726 432.961,373.959 443.300,378.175 442.242 C 380.461 441.668,380.800 440.834,380.800 435.782 C 380.800 429.671,378.762 427.427,375.525 429.973 M18.400 440.571 C 18.400 441.794,20.441 442.843,22.577 442.718 C 26.666 442.479,24.317 440.121,19.900 440.031 C 18.853 440.009,18.400 440.172,18.400 440.571 M99.420 440.368 C 98.866 441.265,101.355 442.482,103.400 442.314 C 105.441 442.147,107.770 440.999,107.373 440.356 C 107.081 439.884,99.712 439.895,99.420 440.368 " stroke="none" fill="#3b3b43" fill-rule="evenodd"></path><path id="path2" d="M200.446 29.432 C 199.261 29.751,195.481 31.662,192.046 33.678 C 185.794 37.349,184.361 38.172,176.258 42.752 C 173.870 44.101,171.440 45.537,170.858 45.943 C 170.276 46.348,167.010 48.263,163.600 50.198 C 160.190 52.132,154.880 55.200,151.800 57.015 C 148.720 58.830,142.510 62.424,138.000 65.001 C 133.490 67.578,129.620 69.831,129.400 70.007 C 129.180 70.183,125.400 72.390,121.000 74.911 C 116.600 77.432,110.390 81.023,107.200 82.891 C 92.898 91.267,86.415 95.040,84.000 96.393 C 78.346 99.563,74.449 101.818,71.200 103.801 C 69.330 104.942,65.684 107.093,63.097 108.580 C 57.533 111.778,54.743 114.164,53.301 116.957 C 51.726 120.007,51.575 129.423,51.696 217.200 L 51.800 293.000 52.748 294.925 C 54.005 297.479,57.011 300.377,60.095 302.009 C 61.473 302.738,64.490 304.444,66.800 305.801 C 72.209 308.978,76.252 311.303,80.000 313.391 C 81.650 314.310,83.900 315.609,85.000 316.279 C 87.786 317.975,100.267 325.179,109.808 330.600 C 112.132 331.920,115.060 333.611,116.316 334.358 C 117.572 335.104,120.400 336.740,122.600 337.993 C 124.800 339.245,127.500 340.814,128.600 341.478 C 131.212 343.056,135.722 345.631,140.166 348.082 C 143.440 349.888,147.464 352.235,152.600 355.332 C 153.700 355.996,155.950 357.290,157.600 358.207 C 159.250 359.125,161.630 360.489,162.890 361.238 C 164.149 361.987,167.705 364.040,170.792 365.800 C 178.995 370.477,184.627 373.723,187.800 375.600 C 204.988 385.773,203.622 385.859,224.550 373.299 C 225.843 372.524,228.723 370.866,230.950 369.616 C 236.497 366.503,242.916 362.781,243.400 362.398 C 243.620 362.223,246.770 360.385,250.400 358.314 C 254.030 356.242,258.530 353.643,260.400 352.538 C 262.270 351.432,265.690 349.437,268.000 348.103 C 270.310 346.769,274.900 344.099,278.200 342.169 C 283.660 338.975,290.319 335.132,297.200 331.201 C 298.630 330.385,301.150 328.909,302.800 327.923 C 304.450 326.936,307.690 325.037,310.000 323.703 C 312.310 322.369,316.900 319.699,320.200 317.771 C 323.500 315.842,328.180 313.149,330.600 311.788 C 333.020 310.426,337.250 307.970,340.000 306.329 C 342.750 304.689,346.325 302.574,347.944 301.630 C 351.657 299.463,353.792 297.336,355.141 294.459 L 356.200 292.200 356.200 205.400 L 356.200 118.600 355.298 116.911 C 353.954 114.396,352.198 112.575,349.666 111.068 C 346.486 109.177,340.787 105.877,334.000 101.999 C 330.810 100.176,326.130 97.482,323.600 96.011 C 317.142 92.258,303.395 84.331,298.400 81.481 C 293.817 78.866,292.187 77.922,283.800 73.024 C 280.720 71.226,276.040 68.525,273.400 67.024 C 266.578 63.144,261.666 60.312,253.200 55.376 C 249.130 53.004,244.630 50.406,243.200 49.604 C 238.122 46.755,223.369 38.290,221.400 37.095 C 208.019 28.976,205.528 28.065,200.446 29.432 M208.079 31.078 C 209.011 31.451,212.209 33.183,215.187 34.926 C 220.968 38.312,237.691 47.971,242.000 50.413 C 247.241 53.383,252.343 56.332,255.631 58.291 C 259.063 60.335,263.618 62.953,272.200 67.812 C 274.840 69.306,278.440 71.377,280.200 72.413 C 284.796 75.119,292.333 79.492,297.200 82.275 C 310.031 89.613,313.168 91.417,314.800 92.393 C 317.067 93.749,325.248 98.478,332.800 102.797 C 339.293 106.509,345.136 109.878,348.334 111.750 C 351.510 113.610,353.825 116.275,354.610 118.977 C 355.645 122.535,355.297 290.452,354.250 293.253 C 353.268 295.878,351.224 298.084,347.885 300.124 C 342.578 303.366,325.383 313.394,307.936 323.421 C 303.611 325.907,299.381 328.378,298.536 328.911 C 297.691 329.445,295.020 331.014,292.600 332.396 C 290.180 333.779,286.130 336.113,283.600 337.584 C 275.681 342.185,270.993 344.902,257.800 352.534 C 250.760 356.607,243.830 360.644,242.400 361.504 C 239.954 362.977,234.494 366.143,224.800 371.712 C 222.490 373.039,219.322 374.902,217.761 375.853 C 204.722 383.791,203.503 383.720,187.800 374.108 C 185.287 372.570,177.037 367.807,170.985 364.400 C 168.444 362.970,165.338 361.189,164.083 360.442 C 162.827 359.696,160.000 358.060,157.800 356.807 C 155.600 355.555,152.900 353.985,151.800 353.318 C 150.700 352.651,147.820 350.975,145.400 349.594 C 142.980 348.212,139.110 346.003,136.800 344.684 C 132.979 342.502,130.569 341.107,119.400 334.607 C 117.420 333.455,113.785 331.362,111.322 329.956 C 98.673 322.735,96.063 321.238,92.870 319.373 C 84.910 314.723,80.967 312.439,75.998 309.600 C 73.111 307.950,69.122 305.656,67.135 304.502 C 65.147 303.349,62.444 301.831,61.128 301.130 C 58.154 299.544,55.187 296.764,53.945 294.400 L 53.000 292.600 52.898 272.600 C 52.842 261.600,52.932 222.720,53.098 186.200 L 53.400 119.800 54.527 117.504 C 56.171 114.158,56.488 113.927,71.800 104.940 C 76.264 102.320,81.268 99.413,103.600 86.470 C 108.330 83.729,115.980 79.288,120.600 76.603 C 125.220 73.918,133.050 69.379,138.000 66.517 C 142.950 63.655,149.735 59.713,153.077 57.757 C 156.420 55.801,160.893 53.210,163.019 52.000 C 165.145 50.790,167.900 49.191,169.142 48.446 C 170.384 47.701,175.450 44.756,180.400 41.901 C 185.350 39.046,190.851 35.839,192.625 34.774 C 200.068 30.304,203.871 29.395,208.079 31.078 M201.183 212.530 C 198.182 213.793,195.162 215.472,181.400 223.529 C 177.440 225.848,171.230 229.442,167.600 231.517 C 163.970 233.592,160.550 235.597,160.000 235.972 C 159.450 236.348,156.210 238.239,152.800 240.174 C 149.390 242.109,145.160 244.541,143.400 245.578 C 140.438 247.323,135.883 249.979,125.827 255.824 C 123.414 257.226,121.097 258.945,119.928 260.202 C 118.868 261.341,117.056 262.780,115.901 263.400 C 99.379 272.268,97.814 276.278,108.480 282.423 C 110.086 283.348,112.840 284.958,114.600 286.001 C 116.360 287.044,118.790 288.393,120.000 289.000 C 121.210 289.606,122.696 290.452,123.302 290.880 C 123.907 291.307,126.247 292.695,128.502 293.963 C 130.756 295.232,133.500 296.813,134.600 297.476 C 136.526 298.637,140.885 301.169,147.200 304.796 C 148.850 305.744,152.260 307.669,154.778 309.075 C 157.295 310.481,159.572 311.811,159.838 312.031 C 160.103 312.252,161.733 313.203,163.460 314.147 C 165.187 315.090,167.500 316.404,168.600 317.068 C 173.687 320.136,177.755 322.510,181.034 324.322 C 186.770 327.494,190.817 329.813,193.600 331.522 C 203.313 337.489,204.685 337.633,211.800 333.426 C 216.897 330.412,224.259 326.137,229.400 323.204 C 231.820 321.824,234.700 320.153,235.800 319.491 C 236.900 318.830,240.140 316.934,243.000 315.278 C 245.860 313.622,249.640 311.427,251.400 310.401 C 253.160 309.374,257.030 307.131,260.000 305.416 C 270.945 299.095,275.844 296.244,277.600 295.171 C 278.590 294.567,282.820 292.103,287.000 289.697 C 306.091 278.705,305.600 279.095,305.600 274.914 C 305.600 271.306,304.774 270.503,296.000 265.576 C 289.881 262.141,289.187 261.595,288.149 259.402 C 287.091 257.168,286.763 256.940,274.600 249.992 C 268.454 246.482,260.795 242.052,258.085 240.441 C 256.828 239.694,254.630 238.422,253.200 237.616 C 246.613 233.900,234.811 227.085,232.200 225.490 C 231.100 224.818,229.030 223.610,227.600 222.806 C 223.213 220.339,216.370 216.405,212.911 214.363 C 206.743 210.720,205.825 210.576,201.183 212.530 M132.625 409.170 C 130.617 409.589,129.600 410.833,129.600 412.871 C 129.600 415.682,130.990 416.800,134.486 416.800 C 137.765 416.800,137.600 416.123,137.600 429.565 C 137.600 443.214,137.878 442.253,133.782 442.746 C 129.094 443.311,127.551 448.529,131.651 449.958 C 133.654 450.656,151.269 450.549,152.994 449.828 C 156.353 448.425,155.089 442.800,151.415 442.800 C 147.089 442.800,147.212 443.283,147.205 426.326 C 147.200 411.766,147.102 410.879,145.387 409.754 C 144.196 408.974,135.480 408.575,132.625 409.170 M251.025 409.170 C 249.017 409.589,248.000 410.833,248.000 412.871 C 248.000 415.675,249.391 416.800,252.860 416.800 C 255.983 416.800,256.000 416.870,256.000 429.556 C 256.000 442.676,256.145 442.194,252.029 442.743 C 248.899 443.162,248.000 444.032,248.000 446.644 C 248.000 450.260,248.860 450.490,261.735 450.323 L 271.271 450.200 272.235 449.078 C 274.519 446.421,272.910 443.298,268.982 442.765 C 265.427 442.283,265.600 443.101,265.600 426.750 C 265.600 411.747,265.508 410.882,263.787 409.754 C 262.596 408.974,253.880 408.575,251.025 409.170 M50.122 410.165 L 49.000 411.130 48.876 428.665 C 48.724 450.010,48.804 450.400,53.320 450.400 C 57.921 450.400,58.400 449.313,58.400 438.867 C 58.400 428.997,59.297 427.314,63.767 428.789 C 66.143 429.573,66.181 429.723,66.407 439.160 C 66.546 444.979,66.777 448.089,67.113 448.686 C 68.189 450.593,73.467 450.895,75.054 449.140 C 76.342 447.715,76.173 429.426,74.844 426.485 C 72.888 422.156,69.124 420.081,64.116 420.570 C 62.622 420.716,60.770 420.873,60.000 420.918 L 58.600 421.000 58.390 416.057 C 58.186 411.263,58.146 411.084,57.067 410.157 C 55.463 408.777,51.732 408.781,50.122 410.165 M382.934 410.155 C 381.869 411.071,381.817 411.289,381.668 415.455 C 381.471 420.968,381.598 420.831,376.986 420.528 C 368.257 419.955,363.445 426.275,364.112 437.440 C 364.692 447.165,371.253 452.841,379.143 450.445 C 381.566 449.709,382.217 449.655,384.021 450.042 C 386.624 450.600,388.639 450.291,389.857 449.146 L 390.800 448.261 390.800 429.712 L 390.800 411.164 389.818 410.182 C 388.409 408.772,384.559 408.757,382.934 410.155 M55.656 411.165 C 56.541 411.881,56.609 412.241,56.740 416.939 C 56.920 423.360,57.163 423.690,60.777 422.440 C 66.399 420.494,71.220 422.164,73.367 426.800 C 74.122 428.432,74.212 429.480,74.331 438.010 C 74.482 448.856,74.438 449.000,70.972 449.000 C 67.893 449.000,67.829 448.813,67.600 439.067 C 67.427 431.717,67.301 430.410,66.669 429.447 C 65.328 427.405,61.594 426.562,59.251 427.774 C 57.046 428.914,57.015 429.050,56.800 438.646 C 56.570 448.904,56.538 449.000,53.350 449.000 C 49.875 449.000,50.000 449.717,50.000 429.738 L 50.000 412.364 50.982 411.382 C 52.191 410.173,54.309 410.074,55.656 411.165 M144.456 411.164 L 145.400 411.928 145.600 427.150 C 145.829 444.572,145.578 443.496,149.518 443.961 C 153.263 444.402,154.768 447.273,152.000 448.696 C 150.359 449.539,132.250 449.223,131.364 448.336 C 129.547 446.517,131.230 444.000,134.264 444.000 C 138.775 444.000,138.788 443.960,138.795 429.344 C 138.801 415.508,138.973 416.070,134.585 415.542 C 130.746 415.080,129.316 412.969,131.594 411.124 C 132.963 410.016,143.076 410.047,144.456 411.164 M217.691 410.804 C 209.185 412.059,205.200 418.439,205.200 430.800 C 205.200 442.208,208.333 448.188,215.464 450.391 C 223.937 453.008,233.971 447.378,233.985 440.000 C 233.993 435.684,226.959 435.369,224.806 439.589 C 223.018 443.093,219.471 443.951,216.996 441.476 C 213.101 437.581,214.063 421.103,218.288 419.337 C 220.764 418.303,224.800 420.032,224.800 422.127 C 224.800 424.765,230.932 426.427,233.125 424.384 C 236.712 421.042,230.287 412.031,223.600 411.027 C 220.141 410.508,219.785 410.495,217.691 410.804 M262.856 411.164 L 263.800 411.928 264.000 427.150 C 264.223 444.118,264.101 443.444,267.028 443.839 C 270.648 444.329,271.600 444.903,271.600 446.600 C 271.600 448.995,270.407 449.251,259.885 449.120 C 250.390 449.001,250.323 448.994,249.564 448.056 C 247.915 446.017,249.211 444.393,252.827 443.967 C 256.965 443.479,256.800 444.075,256.800 429.618 C 256.800 415.350,257.009 416.066,252.696 415.558 C 249.036 415.126,247.804 413.360,249.782 411.382 C 251.137 410.027,261.242 409.858,262.856 411.164 M388.400 411.200 C 389.567 412.367,389.661 447.080,388.500 448.077 C 387.312 449.098,386.392 449.230,383.966 448.729 C 381.961 448.314,381.320 448.342,379.478 448.923 C 370.854 451.641,365.400 446.480,365.400 435.600 C 365.400 424.614,370.445 419.988,380.000 422.214 C 382.102 422.703,382.578 421.748,382.799 416.596 C 382.984 412.295,383.074 411.867,383.944 411.164 C 385.189 410.157,387.375 410.175,388.400 411.200 M224.689 412.604 C 229.801 414.122,234.387 421.363,231.511 423.377 C 229.341 424.897,227.056 423.838,224.998 420.357 C 222.566 416.243,216.770 416.830,214.402 421.430 C 213.222 423.723,212.870 436.708,213.909 439.633 C 215.946 445.368,222.852 445.751,225.655 440.284 C 227.228 437.218,232.400 437.227,232.400 440.296 C 232.400 445.103,225.952 449.866,219.600 449.753 C 210.108 449.583,205.208 441.557,206.200 427.800 C 207.072 415.698,214.513 409.582,224.689 412.604 M16.600 421.212 C 5.916 425.329,8.319 436.336,20.522 439.182 C 25.655 440.379,27.088 441.289,25.967 442.640 C 24.507 444.399,20.536 443.733,17.926 441.292 C 13.547 437.196,7.770 439.669,10.185 444.605 C 15.245 454.947,36.461 452.190,36.389 441.200 C 36.362 437.033,32.201 433.649,25.184 432.085 C 20.940 431.140,20.000 430.653,20.000 429.400 C 20.000 426.705,24.060 426.960,27.301 429.858 C 30.366 432.598,35.578 431.461,35.594 428.047 C 35.620 422.312,24.309 418.242,16.600 421.212 M97.153 420.952 C 85.464 425.129,84.062 443.905,95.041 449.220 C 100.346 451.788,105.379 451.756,110.551 449.122 C 116.951 445.862,113.845 439.084,107.273 441.968 C 103.476 443.634,99.914 443.282,98.761 441.126 C 97.851 439.426,98.795 439.171,105.795 439.231 C 114.844 439.309,115.907 438.646,115.471 433.200 C 114.711 423.689,105.928 417.817,97.153 420.952 M169.718 420.843 C 167.119 421.594,166.261 425.263,168.165 427.478 C 169.092 428.556,169.292 428.604,173.265 428.712 C 180.807 428.916,180.798 428.777,173.778 436.757 C 167.841 443.506,167.200 444.466,167.200 446.606 C 167.200 450.194,167.955 450.400,181.073 450.400 C 192.915 450.400,193.967 450.217,194.732 448.023 C 196.038 444.276,194.209 442.802,188.246 442.795 C 180.536 442.785,180.333 442.327,185.500 436.590 C 193.304 427.925,194.407 426.406,194.394 424.340 C 194.384 422.755,193.447 421.423,191.990 420.923 C 190.309 420.345,171.670 420.278,169.718 420.843 M293.200 421.075 C 284.925 424.089,281.686 438.359,287.591 445.789 C 292.968 452.555,303.548 452.926,309.166 446.544 C 315.582 439.254,313.199 425.242,304.907 421.501 C 302.342 420.344,295.855 420.108,293.200 421.075 M328.349 420.674 C 325.474 421.139,324.009 432.033,325.597 441.150 C 326.992 449.161,332.713 452.773,339.985 450.232 C 342.611 449.315,342.854 449.295,344.677 449.859 C 347.382 450.694,349.932 450.360,351.087 449.017 C 352.186 447.739,352.532 424.477,351.483 422.400 C 350.468 420.391,345.981 419.917,343.901 421.599 C 343.027 422.306,342.994 422.592,342.800 431.282 C 342.575 441.351,342.395 442.032,339.770 442.757 C 335.674 443.888,335.040 442.486,334.800 431.768 C 334.557 420.912,333.897 419.776,328.349 420.674 M29.708 422.937 C 33.473 424.780,35.122 428.047,32.992 429.442 C 31.515 430.410,29.131 429.974,27.351 428.411 C 24.657 426.045,21.354 425.649,19.231 427.436 C 16.445 429.780,18.149 431.878,23.907 433.195 C 32.381 435.132,35.555 438.051,34.618 443.046 C 33.162 450.804,16.095 452.273,11.616 445.026 C 9.166 441.061,13.281 439.015,16.933 442.381 C 20.384 445.562,26.655 445.709,27.429 442.627 C 27.989 440.396,26.427 439.275,21.016 438.024 C 12.692 436.101,9.051 431.324,12.102 426.330 C 14.942 421.682,23.697 419.994,29.708 422.937 M107.976 423.019 C 111.630 425.002,113.952 429.183,113.983 433.838 C 114.010 437.706,113.863 437.772,104.947 437.932 C 96.482 438.083,95.576 438.446,96.964 441.131 C 98.517 444.134,103.285 445.118,107.474 443.300 C 111.724 441.456,114.347 444.337,110.960 447.129 C 104.110 452.775,91.857 449.108,89.238 440.627 C 85.379 428.136,97.103 417.119,107.976 423.019 M304.733 422.999 C 315.455 428.853,312.791 447.066,300.838 449.629 C 286.781 452.644,279.382 430.875,291.844 423.173 C 295.128 421.143,301.185 421.061,304.733 422.999 M192.069 422.662 C 193.878 424.300,192.902 426.160,186.448 433.381 C 180.059 440.527,179.600 441.121,179.600 442.241 C 179.600 443.668,180.909 444.000,186.537 444.000 C 192.379 444.000,193.318 444.389,193.122 446.729 C 192.925 449.075,192.370 449.187,180.926 449.194 C 165.420 449.203,164.923 448.483,173.640 438.643 C 183.040 428.032,183.090 427.605,174.926 427.594 C 169.625 427.587,168.651 427.203,168.474 425.052 C 168.222 422.008,168.253 422.000,180.530 422.000 C 190.025 422.000,191.426 422.080,192.069 422.662 M332.224 422.567 C 332.939 423.089,333.016 423.818,333.209 431.867 C 333.475 442.961,334.488 445.073,339.123 444.203 C 343.056 443.466,343.362 442.654,343.600 432.341 C 343.833 422.246,343.919 422.000,347.200 422.000 C 350.585 422.000,350.580 421.983,350.724 434.411 C 350.895 449.277,350.444 450.396,345.050 448.506 L 342.634 447.660 340.217 448.682 C 334.719 451.009,329.784 449.284,327.544 444.253 C 326.619 442.174,325.872 426.959,326.561 424.215 C 327.091 422.101,330.305 421.166,332.224 422.567 M99.600 427.481 C 96.995 428.429,95.794 432.037,97.826 432.810 C 99.509 433.450,104.886 433.295,105.911 432.577 C 109.086 430.354,103.687 425.994,99.600 427.481 M295.559 428.105 C 290.940 431.182,291.558 441.816,296.470 443.781 C 301.205 445.676,304.764 441.556,304.316 434.698 C 303.908 428.459,299.740 425.320,295.559 428.105 M375.227 427.878 C 371.239 429.976,370.737 439.856,374.459 442.989 C 376.346 444.576,379.145 444.428,381.098 442.638 L 382.585 441.275 382.739 436.781 C 383.015 428.716,380.132 425.299,375.227 427.878 M104.020 429.010 C 105.801 429.931,105.666 431.476,103.775 431.831 C 100.530 432.440,98.021 431.455,98.854 429.899 C 99.639 428.431,102.087 428.010,104.020 429.010 M301.665 429.966 C 305.983 434.702,302.244 445.061,297.098 442.620 C 293.067 440.707,292.942 430.751,296.926 428.970 C 298.653 428.198,300.384 428.561,301.665 429.966 M380.700 429.822 C 382.155 431.475,382.059 439.793,380.564 441.569 C 378.582 443.925,374.928 442.857,373.965 439.639 C 371.835 432.532,376.763 425.348,380.700 429.822 " stroke="none" fill="#86868e" fill-rule="evenodd"></path><path id="path3" d="M198.425 31.619 C 197.008 32.289,194.398 33.709,192.625 34.774 C 190.851 35.839,185.350 39.046,180.400 41.901 C 175.450 44.756,170.384 47.701,169.142 48.446 C 167.900 49.191,165.145 50.790,163.019 52.000 C 160.893 53.210,156.420 55.801,153.077 57.757 C 149.735 59.713,142.950 63.655,138.000 66.517 C 133.050 69.379,125.220 73.918,120.600 76.603 C 115.980 79.288,108.330 83.729,103.600 86.470 C 81.268 99.413,76.264 102.320,71.800 104.940 C 56.488 113.927,56.171 114.158,54.527 117.504 L 53.400 119.800 53.098 186.200 C 52.932 222.720,52.842 261.600,52.898 272.600 L 53.000 292.600 53.945 294.400 C 55.187 296.764,58.154 299.544,61.128 301.130 C 62.444 301.831,65.147 303.349,67.135 304.502 C 69.122 305.656,73.111 307.950,75.998 309.600 C 80.967 312.439,84.910 314.723,92.870 319.373 C 96.063 321.238,98.673 322.735,111.322 329.956 C 113.785 331.362,117.420 333.455,119.400 334.607 C 130.569 341.107,132.979 342.502,136.800 344.684 C 139.110 346.003,142.980 348.212,145.400 349.594 C 147.820 350.975,150.700 352.651,151.800 353.318 C 152.900 353.985,155.600 355.555,157.800 356.807 C 160.000 358.060,162.827 359.696,164.083 360.442 C 165.338 361.189,168.444 362.970,170.985 364.400 C 177.037 367.807,185.287 372.570,187.800 374.108 C 203.503 383.720,204.722 383.791,217.761 375.853 C 219.322 374.902,222.490 373.039,224.800 371.712 C 234.494 366.143,239.954 362.977,242.400 361.504 C 243.830 360.644,250.760 356.607,257.800 352.534 C 270.993 344.902,275.681 342.185,283.600 337.584 C 286.130 336.113,290.180 333.779,292.600 332.396 C 295.020 331.014,297.691 329.445,298.536 328.911 C 299.381 328.378,303.611 325.907,307.936 323.421 C 325.383 313.394,342.578 303.366,347.885 300.124 C 351.224 298.084,353.268 295.878,354.250 293.253 C 355.297 290.452,355.645 122.535,354.610 118.977 C 353.825 116.275,351.510 113.610,348.334 111.750 C 345.136 109.878,339.293 106.509,332.800 102.797 C 325.248 98.478,317.067 93.749,314.800 92.393 C 313.168 91.417,310.031 89.613,297.200 82.275 C 292.333 79.492,284.796 75.119,280.200 72.413 C 278.440 71.377,274.840 69.306,272.200 67.812 C 263.618 62.953,259.063 60.335,255.631 58.291 C 252.343 56.332,247.241 53.383,242.000 50.413 C 237.691 47.971,220.968 38.312,215.187 34.926 C 206.379 29.769,203.526 29.206,198.425 31.619 M207.494 31.763 C 208.884 32.253,213.994 35.110,220.600 39.089 C 221.700 39.752,224.490 41.371,226.800 42.688 C 229.110 44.004,232.890 46.159,235.200 47.476 C 237.510 48.793,243.540 52.267,248.600 55.196 C 259.746 61.647,266.812 65.721,272.400 68.917 C 276.471 71.245,278.438 72.383,288.600 78.294 C 293.201 80.970,296.274 82.734,306.400 88.513 C 308.930 89.957,312.260 91.885,313.800 92.797 C 316.678 94.503,324.732 99.160,331.800 103.206 C 351.015 114.204,351.603 114.602,353.334 117.800 L 354.200 119.400 354.186 205.000 C 354.171 297.961,354.310 292.482,351.880 295.669 C 350.243 297.815,344.486 301.498,329.800 309.795 C 324.291 312.907,303.686 324.859,301.000 326.500 C 299.900 327.172,295.490 329.744,291.200 332.216 C 286.910 334.687,281.870 337.601,280.000 338.691 C 276.427 340.773,271.909 343.396,263.600 348.210 C 260.850 349.804,256.530 352.318,254.000 353.798 C 251.470 355.277,248.050 357.251,246.400 358.184 C 244.750 359.117,240.340 361.675,236.600 363.868 C 232.860 366.061,228.540 368.575,227.000 369.456 C 225.460 370.336,221.500 372.647,218.200 374.591 C 203.499 383.250,205.517 383.434,185.200 371.579 C 182.450 369.974,178.400 367.642,176.200 366.397 C 169.882 362.820,165.226 360.140,155.100 354.247 C 150.243 351.420,142.527 346.979,136.800 343.715 C 134.270 342.272,130.040 339.832,127.400 338.292 C 124.760 336.752,120.935 334.526,118.900 333.346 C 116.865 332.166,113.535 330.234,111.500 329.054 C 109.465 327.873,106.990 326.464,106.000 325.922 C 104.229 324.953,98.048 321.389,88.600 315.889 C 85.960 314.352,82.630 312.431,81.200 311.619 C 76.206 308.785,69.772 305.090,66.200 303.005 C 64.220 301.849,61.723 300.409,60.650 299.806 C 57.858 298.234,55.819 296.261,54.739 294.088 L 53.800 292.200 53.697 273.600 C 53.640 263.370,53.730 224.670,53.897 187.600 L 54.200 120.200 55.325 117.908 C 56.674 115.162,57.850 114.144,63.493 110.839 C 65.862 109.452,68.700 107.768,69.800 107.097 C 72.033 105.735,80.802 100.649,84.800 98.397 C 87.177 97.057,91.529 94.524,108.000 84.888 C 111.190 83.022,117.400 79.432,121.800 76.911 C 126.200 74.390,129.980 72.183,130.200 72.007 C 130.420 71.831,134.200 69.622,138.600 67.098 C 143.000 64.574,148.670 61.292,151.200 59.804 C 153.730 58.316,157.780 55.976,160.200 54.605 C 164.569 52.130,169.307 49.372,173.679 46.761 C 174.933 46.013,177.813 44.341,180.079 43.047 C 182.346 41.753,187.375 38.826,191.255 36.542 C 200.688 30.989,203.204 30.249,207.494 31.763 M204.439 63.091 L 203.567 63.800 203.318 136.497 L 203.069 209.194 202.234 209.726 C 201.775 210.018,200.590 210.573,199.600 210.958 C 198.610 211.344,195.730 212.873,193.200 214.355 C 190.670 215.838,186.710 218.134,184.400 219.458 C 177.413 223.462,162.731 232.002,160.600 233.302 C 159.500 233.973,155.090 236.539,150.800 239.005 C 146.510 241.470,140.750 244.802,138.000 246.409 C 135.250 248.016,130.210 250.929,126.800 252.882 C 122.198 255.519,120.157 256.940,118.883 258.395 C 117.939 259.473,116.589 260.698,115.883 261.117 C 115.177 261.535,112.026 263.372,108.880 265.198 C 96.235 272.539,96.656 278.255,110.400 285.828 C 114.532 288.104,120.862 291.735,131.600 297.987 C 138.921 302.249,143.416 304.853,146.800 306.792 C 156.287 312.228,158.574 313.536,162.200 315.600 C 164.400 316.852,167.100 318.421,168.200 319.087 C 170.524 320.492,178.205 324.934,184.800 328.687 C 187.330 330.126,190.840 332.166,192.600 333.220 C 202.635 339.227,205.555 339.616,211.663 335.760 C 213.344 334.699,219.430 331.151,227.200 326.702 C 234.992 322.241,236.581 321.321,243.600 317.211 C 259.233 308.055,278.230 297.031,287.200 291.909 C 291.050 289.711,295.280 287.240,296.600 286.419 C 297.920 285.598,300.287 284.180,301.859 283.269 C 306.913 280.342,308.503 277.068,307.182 272.312 C 306.406 269.517,305.274 268.609,296.000 263.342 C 287.928 258.757,288.054 258.003,297.762 252.806 C 304.534 249.180,305.724 247.984,306.380 244.149 C 307.275 238.911,306.786 119.489,305.865 118.472 C 305.015 117.532,300.700 115.051,278.400 102.678 C 269.490 97.734,259.230 92.028,255.600 89.999 C 251.970 87.969,246.480 84.916,243.400 83.215 C 240.320 81.513,236.090 79.165,234.000 77.996 C 224.121 72.471,220.026 70.190,218.000 69.083 C 216.790 68.422,213.820 66.760,211.400 65.391 C 205.984 62.327,205.554 62.184,204.439 63.091 M208.162 211.810 C 208.965 212.146,211.102 213.294,212.911 214.363 C 216.370 216.405,223.213 220.339,227.600 222.806 C 229.030 223.610,231.100 224.818,232.200 225.490 C 234.811 227.085,246.613 233.900,253.200 237.616 C 254.630 238.422,256.828 239.694,258.085 240.441 C 260.795 242.052,268.454 246.482,274.600 249.992 C 286.763 256.940,287.091 257.168,288.149 259.402 C 289.187 261.595,289.881 262.141,296.000 265.576 C 304.774 270.503,305.600 271.306,305.600 274.914 C 305.600 279.095,306.091 278.705,287.000 289.697 C 282.820 292.103,278.590 294.567,277.600 295.171 C 275.844 296.244,270.945 299.095,260.000 305.416 C 257.030 307.131,253.160 309.374,251.400 310.401 C 249.640 311.427,245.860 313.622,243.000 315.278 C 240.140 316.934,236.900 318.830,235.800 319.491 C 234.700 320.153,231.820 321.824,229.400 323.204 C 224.259 326.137,216.897 330.412,211.800 333.426 C 204.685 337.633,203.313 337.489,193.600 331.522 C 190.817 329.813,186.770 327.494,181.034 324.322 C 177.755 322.510,173.687 320.136,168.600 317.068 C 167.500 316.404,165.187 315.090,163.460 314.147 C 161.733 313.203,160.103 312.252,159.838 312.031 C 159.572 311.811,157.295 310.481,154.778 309.075 C 152.260 307.669,148.850 305.744,147.200 304.796 C 140.885 301.169,136.526 298.637,134.600 297.476 C 133.500 296.813,130.756 295.232,128.502 293.963 C 126.247 292.695,123.907 291.307,123.302 290.880 C 122.696 290.452,121.210 289.606,120.000 289.000 C 118.790 288.393,116.360 287.044,114.600 286.001 C 112.840 284.958,110.086 283.348,108.480 282.423 C 97.814 276.278,99.379 272.268,115.901 263.400 C 117.056 262.780,118.868 261.341,119.928 260.202 C 121.097 258.945,123.414 257.226,125.827 255.824 C 135.883 249.979,140.438 247.323,143.400 245.578 C 145.160 244.541,149.390 242.109,152.800 240.174 C 156.210 238.239,159.450 236.348,160.000 235.972 C 160.550 235.597,163.970 233.592,167.600 231.517 C 171.230 229.442,177.440 225.848,181.400 223.529 C 202.714 211.051,204.487 210.274,208.162 211.810 M50.982 411.382 L 50.000 412.364 50.000 429.738 C 50.000 449.717,49.875 449.000,53.350 449.000 C 56.538 449.000,56.570 448.904,56.800 438.646 C 57.015 429.050,57.046 428.914,59.251 427.774 C 61.594 426.562,65.328 427.405,66.669 429.447 C 67.301 430.410,67.427 431.717,67.600 439.067 C 67.829 448.813,67.893 449.000,70.972 449.000 C 74.438 449.000,74.482 448.856,74.331 438.010 C 74.212 429.480,74.122 428.432,73.367 426.800 C 71.220 422.164,66.399 420.494,60.777 422.440 C 57.163 423.690,56.920 423.360,56.740 416.939 C 56.609 412.241,56.541 411.881,55.656 411.165 C 54.309 410.074,52.191 410.173,50.982 411.382 M131.594 411.124 C 129.316 412.969,130.746 415.080,134.585 415.542 C 138.973 416.070,138.801 415.508,138.795 429.344 C 138.788 443.960,138.775 444.000,134.264 444.000 C 131.230 444.000,129.547 446.517,131.364 448.336 C 132.250 449.223,150.359 449.539,152.000 448.696 C 154.768 447.273,153.263 444.402,149.518 443.961 C 145.578 443.496,145.829 444.572,145.600 427.150 L 145.400 411.928 144.456 411.164 C 143.076 410.047,132.963 410.016,131.594 411.124 M249.782 411.382 C 247.804 413.360,249.036 415.126,252.696 415.558 C 257.009 416.066,256.800 415.350,256.800 429.618 C 256.800 444.075,256.965 443.479,252.827 443.967 C 249.211 444.393,247.915 446.017,249.564 448.056 C 250.323 448.994,250.390 449.001,259.885 449.120 C 270.407 449.251,271.600 448.995,271.600 446.600 C 271.600 444.903,270.648 444.329,267.028 443.839 C 264.101 443.444,264.223 444.118,264.000 427.150 L 263.800 411.928 262.856 411.164 C 261.242 409.858,251.137 410.027,249.782 411.382 M383.944 411.164 C 383.074 411.867,382.984 412.295,382.799 416.596 C 382.578 421.748,382.102 422.703,380.000 422.214 C 370.445 419.988,365.400 424.614,365.400 435.600 C 365.400 446.480,370.854 451.641,379.478 448.923 C 381.320 448.342,381.961 448.314,383.966 448.729 C 386.392 449.230,387.312 449.098,388.500 448.077 C 389.661 447.080,389.567 412.367,388.400 411.200 C 387.375 410.175,385.189 410.157,383.944 411.164 M55.111 411.823 C 55.938 412.402,56.000 412.752,56.000 416.836 C 56.000 424.018,56.946 425.191,61.269 423.371 C 70.230 419.599,74.221 424.895,73.927 440.164 C 73.786 447.499,73.569 448.133,71.206 448.133 C 69.094 448.133,69.017 447.838,68.796 438.881 C 68.529 428.059,67.637 426.402,62.080 426.401 C 56.870 426.399,56.238 427.691,56.072 438.674 C 55.932 447.892,55.899 448.022,53.642 448.086 C 51.110 448.158,51.200 448.835,51.200 429.774 L 51.200 412.445 52.089 411.823 C 52.578 411.480,53.258 411.200,53.600 411.200 C 53.942 411.200,54.622 411.480,55.111 411.823 M144.056 411.964 L 145.000 412.728 145.200 427.799 L 145.400 442.871 146.522 443.835 C 147.305 444.508,148.130 444.800,149.249 444.800 C 151.374 444.800,152.400 445.394,152.400 446.624 C 152.400 448.174,151.104 448.400,142.200 448.400 C 133.260 448.400,132.000 448.178,132.000 446.600 C 132.000 445.428,133.203 444.800,135.446 444.800 C 139.781 444.800,140.079 443.717,139.922 428.540 L 139.800 416.730 138.678 415.765 C 137.881 415.080,137.068 414.798,135.878 414.794 C 132.848 414.783,130.931 412.971,132.633 411.726 C 133.877 410.816,142.869 411.004,144.056 411.964 M262.342 411.900 C 263.151 412.582,263.176 412.980,263.286 427.400 C 263.419 444.646,263.458 444.800,267.730 444.800 C 269.174 444.800,270.800 445.753,270.800 446.600 C 270.800 448.276,255.127 449.417,251.426 448.010 C 249.008 447.091,250.527 444.800,253.555 444.800 C 257.926 444.800,258.000 444.544,258.000 429.381 C 258.000 414.255,258.458 415.514,252.600 414.534 C 250.362 414.160,249.595 412.778,251.038 411.722 C 252.218 410.860,261.277 411.002,262.342 411.900 M388.000 412.000 C 388.899 412.899,389.272 444.707,388.410 446.974 C 387.970 448.131,386.261 448.346,383.531 447.588 C 382.330 447.254,381.608 447.337,379.576 448.040 C 371.695 450.767,366.251 445.589,366.286 435.400 C 366.316 426.856,370.552 421.686,376.796 422.574 C 383.707 423.557,383.616 423.628,383.909 416.994 C 384.157 411.367,385.603 409.603,388.000 412.000 M215.746 412.436 C 205.486 415.409,202.188 436.966,210.615 445.975 C 217.195 453.010,232.400 449.047,232.400 440.296 C 232.400 437.227,227.228 437.218,225.655 440.284 C 222.852 445.751,215.946 445.368,213.909 439.633 C 212.870 436.708,213.222 423.723,214.402 421.430 C 216.770 416.830,222.566 416.243,224.998 420.357 C 228.539 426.347,234.544 424.682,231.569 418.535 C 229.111 413.458,221.861 410.663,215.746 412.436 M223.307 413.058 C 228.569 413.928,234.048 421.302,230.600 422.873 C 229.121 423.547,227.886 422.809,226.274 420.289 C 222.559 414.481,215.156 415.984,213.120 422.960 C 212.495 425.101,212.501 436.851,213.128 439.040 C 215.087 445.872,222.770 447.256,226.300 441.411 C 228.109 438.416,231.602 437.942,231.599 440.691 C 231.592 445.715,223.925 449.951,217.334 448.572 C 210.666 447.177,207.665 442.377,207.303 432.526 C 206.772 418.105,212.403 411.256,223.307 413.058 M17.124 422.349 C 7.358 426.281,9.620 435.391,21.016 438.024 C 26.427 439.275,27.989 440.396,27.429 442.627 C 26.655 445.709,20.384 445.562,16.933 442.381 C 13.281 439.015,9.166 441.061,11.616 445.026 C 16.095 452.273,33.162 450.804,34.618 443.046 C 35.555 438.051,32.381 435.132,23.907 433.195 C 18.149 431.878,16.445 429.780,19.231 427.436 C 21.354 425.649,24.657 426.045,27.351 428.411 C 29.889 430.639,34.000 430.313,34.000 427.884 C 34.000 423.257,23.457 419.799,17.124 422.349 M98.000 421.951 C 85.780 425.960,85.100 444.252,97.003 448.782 C 104.342 451.576,115.788 447.188,111.525 443.216 C 110.420 442.186,110.021 442.195,107.474 443.300 C 103.285 445.118,98.517 444.134,96.964 441.131 C 95.576 438.446,96.482 438.083,104.947 437.932 C 113.863 437.772,114.010 437.706,113.983 433.838 C 113.926 425.466,105.772 419.402,98.000 421.951 M294.306 421.976 C 283.754 425.369,282.453 443.325,292.392 448.396 C 304.080 454.359,315.742 441.340,309.945 428.800 C 307.298 423.075,300.335 420.037,294.306 421.976 M169.036 422.761 C 168.573 423.272,168.389 424.024,168.474 425.052 C 168.651 427.203,169.625 427.587,174.926 427.594 C 183.090 427.605,183.040 428.032,173.640 438.643 C 164.923 448.483,165.420 449.203,180.926 449.194 C 192.370 449.187,192.925 449.075,193.122 446.729 C 193.318 444.389,192.379 444.000,186.537 444.000 C 180.909 444.000,179.600 443.668,179.600 442.241 C 179.600 441.121,180.059 440.527,186.448 433.381 C 192.902 426.160,193.878 424.300,192.069 422.662 C 190.873 421.580,170.024 421.669,169.036 422.761 M327.429 422.628 C 325.889 424.168,325.977 440.732,327.544 444.253 C 329.784 449.284,334.719 451.009,340.217 448.682 L 342.634 447.660 345.050 448.506 C 350.444 450.396,350.895 449.277,350.724 434.411 C 350.580 421.983,350.585 422.000,347.200 422.000 C 343.919 422.000,343.833 422.246,343.600 432.341 C 343.362 442.654,343.056 443.466,339.123 444.203 C 334.488 445.073,333.475 442.961,333.209 431.867 C 333.016 423.818,332.939 423.089,332.224 422.567 C 331.172 421.799,328.220 421.837,327.429 422.628 M27.728 423.068 C 32.044 424.279,34.746 427.985,32.000 428.927 C 30.798 429.340,29.718 428.919,27.056 427.001 C 23.849 424.690,19.254 425.187,17.798 428.003 C 16.346 430.812,18.295 432.746,23.854 434.012 C 31.369 435.724,33.992 437.674,33.997 441.553 C 34.009 449.048,18.873 451.801,13.197 445.336 C 10.357 442.101,13.068 440.210,16.462 443.058 C 18.765 444.990,20.324 445.600,22.961 445.600 C 29.695 445.600,31.152 439.973,24.883 438.176 C 23.627 437.816,21.127 437.072,19.327 436.522 C 5.439 432.283,13.658 419.120,27.728 423.068 M106.027 423.039 C 109.953 424.194,112.625 427.818,113.439 433.094 C 113.969 436.529,113.440 436.792,105.891 436.847 C 96.795 436.914,94.879 437.645,96.007 440.622 C 97.536 444.658,102.253 446.173,107.524 444.321 C 112.951 442.416,113.048 445.993,107.626 448.038 C 98.464 451.492,89.781 445.520,89.832 435.800 C 89.884 425.905,96.921 420.360,106.027 423.039 M302.827 423.038 C 312.826 425.972,313.480 443.420,303.759 447.870 C 295.524 451.640,287.288 446.135,286.870 436.580 C 286.414 426.164,293.369 420.262,302.827 423.038 M191.226 423.214 C 193.167 424.253,192.222 425.892,185.078 433.881 C 176.092 443.930,176.167 444.800,186.026 444.800 C 191.527 444.800,193.173 445.362,192.536 447.022 C 192.085 448.199,190.402 448.400,181.000 448.400 C 166.500 448.400,166.398 448.180,175.948 437.487 C 184.610 427.788,184.603 426.807,175.874 426.794 C 170.467 426.786,167.772 425.126,170.238 423.322 C 171.141 422.662,190.013 422.565,191.226 423.214 M331.529 423.148 C 332.457 423.736,332.781 426.419,332.791 433.600 C 332.805 443.083,333.804 445.000,338.729 445.000 C 343.793 445.000,344.800 442.903,344.800 432.363 C 344.800 422.938,345.729 420.959,349.024 423.368 C 350.081 424.141,350.247 446.946,349.200 447.608 C 348.297 448.179,345.903 448.052,345.024 447.387 C 343.890 446.530,342.238 446.666,340.000 447.800 C 335.001 450.333,329.811 448.101,328.217 442.733 C 327.286 439.598,327.321 424.571,328.262 423.531 C 328.953 422.768,330.621 422.572,331.529 423.148 M98.908 426.993 C 96.159 428.188,95.050 432.403,97.200 433.485 C 99.434 434.609,106.774 434.018,107.694 432.640 C 110.035 429.134,103.559 424.971,98.908 426.993 M295.594 427.125 C 291.058 429.484,290.516 440.134,294.751 443.697 C 298.399 446.767,303.587 444.721,305.067 439.628 C 307.498 431.265,301.883 423.854,295.594 427.125 M374.759 427.301 C 368.150 431.680,371.441 446.243,378.761 445.007 C 382.669 444.346,383.803 442.225,383.790 435.600 C 383.774 427.490,379.878 423.909,374.759 427.301 M104.396 427.798 C 108.741 430.045,107.305 433.200,101.937 433.200 C 97.774 433.200,96.800 432.799,96.800 431.085 C 96.800 428.067,101.218 426.155,104.396 427.798 M301.060 427.855 C 304.969 429.710,305.656 439.117,302.139 442.634 C 297.861 446.913,292.600 443.143,292.600 435.800 C 292.600 428.987,296.240 425.568,301.060 427.855 M381.032 428.430 C 382.511 429.819,382.910 431.772,382.739 436.781 L 382.585 441.275 381.098 442.638 C 375.391 447.868,368.994 438.009,373.028 430.200 C 374.575 427.207,378.747 426.284,381.032 428.430 " stroke="none" fill="#97b0c0" fill-rule="evenodd"></path><path id="path4" d="" stroke="none" fill="#396bb4" fill-rule="evenodd"></path><path id="path5" d="" stroke="none" fill="#0b2134" fill-rule="evenodd"></path><path id="path6" d="M197.789 29.740 C 196.255 30.477,193.020 32.256,190.600 33.695 C 188.180 35.133,182.780 38.285,178.600 40.701 C 174.420 43.116,168.930 46.306,166.400 47.790 C 163.870 49.273,160.450 51.245,158.800 52.172 C 157.150 53.098,153.100 55.449,149.800 57.397 C 146.500 59.344,142.450 61.699,140.800 62.630 C 139.150 63.561,135.694 65.556,133.120 67.062 C 130.546 68.568,125.506 71.489,121.920 73.553 C 118.334 75.617,114.140 78.064,112.600 78.990 C 111.060 79.915,107.280 82.124,104.200 83.897 C 101.120 85.670,95.900 88.699,92.600 90.627 C 89.300 92.555,83.450 95.929,79.600 98.125 C 75.750 100.322,71.520 102.784,70.200 103.597 C 68.880 104.409,65.403 106.480,62.473 108.199 C 56.332 111.802,53.978 113.900,52.472 117.112 L 51.400 119.400 51.062 202.800 C 50.718 287.757,50.775 292.352,52.211 295.370 C 53.292 297.643,56.734 300.904,59.875 302.631 C 61.374 303.455,64.169 305.045,66.086 306.165 C 68.004 307.284,71.604 309.347,74.086 310.750 C 76.569 312.152,80.670 314.512,83.200 315.994 C 85.730 317.477,89.600 319.730,91.800 321.002 C 94.000 322.274,97.240 324.162,99.000 325.198 C 100.760 326.234,103.640 327.855,105.400 328.800 C 107.160 329.745,109.053 330.834,109.606 331.220 C 110.159 331.605,112.229 332.808,114.206 333.893 C 116.183 334.978,118.700 336.413,119.800 337.081 C 121.646 338.202,125.969 340.713,135.912 346.439 C 143.368 350.732,145.820 352.131,148.800 353.791 C 150.450 354.710,152.700 356.013,153.800 356.686 C 156.100 358.095,164.045 362.701,170.208 366.200 C 172.533 367.520,176.723 369.928,179.518 371.551 C 188.207 376.597,192.119 378.873,194.400 380.212 C 199.671 383.305,199.927 383.389,204.018 383.395 C 208.174 383.400,210.104 382.700,216.200 378.976 C 217.520 378.170,219.950 376.743,221.600 375.806 C 225.438 373.625,235.941 367.552,240.600 364.818 C 242.580 363.657,247.080 361.050,250.600 359.027 C 254.120 357.003,258.530 354.440,260.400 353.331 C 262.270 352.221,265.600 350.275,267.800 349.005 C 273.273 345.845,278.112 343.029,283.800 339.694 C 286.440 338.145,291.480 335.217,295.000 333.186 C 298.520 331.155,305.270 327.243,310.000 324.491 C 314.730 321.740,322.650 317.149,327.600 314.288 C 332.550 311.428,337.700 308.438,339.043 307.644 C 340.387 306.850,343.509 305.035,345.981 303.612 C 351.108 300.660,354.208 297.891,355.622 295.000 L 356.600 293.000 356.903 225.400 C 357.069 188.220,357.159 149.070,357.103 138.400 L 357.000 119.000 355.919 116.800 C 354.474 113.862,352.142 111.669,347.800 109.166 C 345.820 108.025,340.060 104.715,335.000 101.810 C 329.940 98.905,323.550 95.215,320.800 93.609 C 312.293 88.642,305.514 84.726,302.800 83.213 C 300.148 81.734,297.889 80.432,289.400 75.487 C 280.151 70.101,277.365 68.489,273.100 66.054 C 260.204 58.694,253.310 54.722,246.600 50.787 C 241.415 47.746,227.425 39.735,223.434 37.522 C 221.913 36.679,220.473 35.830,220.234 35.637 C 219.244 34.834,210.069 29.714,208.492 29.083 C 205.472 27.876,201.112 28.143,197.789 29.740 M206.996 29.416 C 209.061 29.954,213.752 32.455,221.400 37.095 C 223.369 38.290,238.122 46.755,243.200 49.604 C 244.630 50.406,249.130 53.004,253.200 55.376 C 261.666 60.312,266.578 63.144,273.400 67.024 C 276.040 68.525,280.720 71.226,283.800 73.024 C 292.187 77.922,293.817 78.866,298.400 81.481 C 303.395 84.331,317.142 92.258,323.600 96.011 C 326.130 97.482,330.810 100.176,334.000 101.999 C 340.787 105.877,346.486 109.177,349.666 111.068 C 352.198 112.575,353.954 114.396,355.298 116.911 L 356.200 118.600 356.200 205.400 L 356.200 292.200 355.141 294.459 C 353.792 297.336,351.657 299.463,347.944 301.630 C 346.325 302.574,342.750 304.689,340.000 306.329 C 337.250 307.970,333.020 310.426,330.600 311.788 C 328.180 313.149,323.500 315.842,320.200 317.771 C 316.900 319.699,312.310 322.369,310.000 323.703 C 307.690 325.037,304.450 326.936,302.800 327.923 C 301.150 328.909,298.630 330.385,297.200 331.201 C 290.319 335.132,283.660 338.975,278.200 342.169 C 274.900 344.099,270.310 346.769,268.000 348.103 C 265.690 349.437,262.270 351.432,260.400 352.538 C 258.530 353.643,254.030 356.242,250.400 358.314 C 246.770 360.385,243.620 362.223,243.400 362.398 C 242.916 362.781,236.497 366.503,230.950 369.616 C 228.723 370.866,225.843 372.524,224.550 373.299 C 210.182 381.922,207.926 382.990,204.200 382.930 C 200.195 382.867,199.710 382.650,187.800 375.600 C 184.627 373.723,178.995 370.477,170.792 365.800 C 167.705 364.040,164.149 361.987,162.890 361.238 C 161.630 360.489,159.250 359.125,157.600 358.207 C 155.950 357.290,153.700 355.996,152.600 355.332 C 147.464 352.235,143.440 349.888,140.166 348.082 C 135.722 345.631,131.212 343.056,128.600 341.478 C 127.500 340.814,124.800 339.245,122.600 337.993 C 120.400 336.740,117.572 335.104,116.316 334.358 C 115.060 333.611,112.132 331.920,109.808 330.600 C 100.267 325.179,87.786 317.975,85.000 316.279 C 83.900 315.609,81.650 314.310,80.000 313.391 C 76.252 311.303,72.209 308.978,66.800 305.801 C 64.490 304.444,61.473 302.738,60.095 302.009 C 57.011 300.377,54.005 297.479,52.748 294.925 L 51.800 293.000 51.696 217.200 C 51.575 129.423,51.726 120.007,53.301 116.957 C 54.743 114.164,57.533 111.778,63.097 108.580 C 65.684 107.093,69.330 104.942,71.200 103.801 C 74.449 101.818,78.346 99.563,84.000 96.393 C 86.415 95.040,92.898 91.267,107.200 82.891 C 110.390 81.023,116.600 77.432,121.000 74.911 C 125.400 72.390,129.180 70.183,129.400 70.007 C 129.620 69.831,133.490 67.578,138.000 65.001 C 142.510 62.424,148.720 58.830,151.800 57.015 C 154.880 55.200,160.190 52.132,163.600 50.198 C 167.010 48.263,170.276 46.348,170.858 45.943 C 171.440 45.537,173.870 44.101,176.258 42.752 C 184.361 38.172,185.794 37.349,192.046 33.678 C 200.169 28.909,202.499 28.245,206.996 29.416 M49.942 408.984 C 48.085 410.033,48.000 410.937,48.000 429.673 C 48.000 451.358,47.859 450.800,53.329 450.800 C 55.327 450.800,56.125 450.619,56.856 450.002 L 57.800 449.204 56.313 449.802 C 53.019 451.126,49.930 450.213,49.191 447.698 C 48.892 446.679,48.791 440.591,48.876 428.665 L 49.000 411.130 50.122 410.165 C 51.514 408.968,55.218 408.798,56.811 409.858 L 57.800 410.516 56.908 409.577 C 55.778 408.388,51.626 408.034,49.942 408.984 M130.444 408.958 C 126.459 411.167,128.242 417.200,132.880 417.200 C 136.945 417.200,136.800 416.746,136.800 429.449 C 136.800 442.068,136.815 442.000,134.046 442.000 C 127.532 442.000,125.775 449.617,132.012 450.820 C 137.152 451.812,152.666 451.110,153.939 449.828 C 154.555 449.207,154.499 449.204,153.113 449.781 C 151.274 450.546,133.753 450.691,131.651 449.958 C 127.551 448.529,129.094 443.311,133.782 442.746 C 137.878 442.253,137.600 443.214,137.600 429.565 C 137.600 416.123,137.765 416.800,134.486 416.800 C 127.708 416.800,127.464 409.707,134.217 408.983 C 138.750 408.498,144.321 408.991,145.684 409.999 C 146.782 410.811,146.815 410.814,146.342 410.055 C 145.286 408.365,133.039 407.520,130.444 408.958 M248.943 408.797 C 244.779 410.477,246.394 416.663,251.144 417.223 C 255.027 417.681,254.800 416.910,254.800 429.620 C 254.800 442.121,254.828 442.000,251.959 442.000 C 247.513 442.000,244.868 446.575,247.611 449.520 C 250.316 452.424,272.550 451.610,273.143 448.585 C 273.246 448.059,273.004 448.183,272.279 449.027 L 271.271 450.200 261.735 450.323 C 248.860 450.490,248.000 450.260,248.000 446.644 C 248.000 444.032,248.899 443.162,252.029 442.743 C 256.145 442.194,256.000 442.676,256.000 429.556 C 256.000 416.870,255.983 416.800,252.860 416.800 C 246.104 416.800,245.884 409.704,252.617 408.983 C 257.095 408.504,262.722 408.992,264.052 409.975 C 264.680 410.439,265.089 410.575,264.976 410.283 C 264.322 408.576,252.259 407.458,248.943 408.797 M382.747 409.004 C 381.344 409.766,381.148 410.373,380.936 414.600 C 380.643 420.430,381.059 419.956,376.299 419.880 C 368.312 419.753,363.829 424.629,363.316 434.000 C 362.649 446.204,370.162 454.300,379.132 451.042 C 380.465 450.558,381.686 450.472,384.444 450.667 C 388.181 450.933,389.698 450.563,390.196 449.266 C 390.391 448.758,390.294 448.772,389.667 449.340 C 388.600 450.305,386.478 450.569,384.021 450.042 C 382.217 449.655,381.566 449.709,379.143 450.445 C 371.253 452.841,364.692 447.165,364.112 437.440 C 363.445 426.275,368.257 419.955,376.986 420.528 C 381.598 420.831,381.471 420.968,381.668 415.455 C 381.817 411.289,381.869 411.071,382.934 410.155 C 384.289 408.989,388.050 408.799,389.511 409.823 C 390.000 410.165,390.400 410.343,390.400 410.217 C 390.400 408.767,384.813 407.882,382.747 409.004 M215.275 410.598 C 211.666 411.615,208.979 413.886,206.484 418.027 C 203.308 423.301,203.562 438.770,206.920 444.499 C 212.742 454.434,228.024 454.146,233.198 444.005 C 233.639 443.140,233.996 442.200,233.991 441.916 C 233.986 441.632,233.627 442.183,233.193 443.141 C 228.503 453.475,212.999 453.816,207.496 443.706 C 204.242 437.727,204.226 423.582,207.467 418.050 C 213.099 408.438,226.599 407.967,232.467 417.178 C 233.090 418.156,233.600 418.777,233.600 418.557 C 233.600 417.902,231.396 414.682,230.154 413.523 C 227.022 410.598,220.101 409.237,215.275 410.598 M218.131 419.364 C 217.434 419.678,216.642 420.348,216.371 420.854 C 215.910 421.715,215.960 421.705,217.170 420.686 C 219.544 418.689,222.371 419.328,223.617 422.145 C 226.020 427.577,234.521 427.366,234.347 421.878 L 234.293 420.200 234.029 422.096 C 233.411 426.526,226.918 426.616,224.853 422.224 C 223.501 419.347,220.761 418.181,218.131 419.364 M17.894 420.009 C 9.291 422.188,6.389 430.534,12.233 436.295 C 14.151 438.186,14.115 438.780,12.080 438.794 C 4.988 438.841,9.009 448.603,17.147 451.095 C 24.356 453.303,36.014 449.311,35.999 444.640 C 35.998 444.398,35.668 444.740,35.265 445.400 C 30.415 453.353,14.214 452.839,10.185 444.605 C 7.770 439.669,13.547 437.196,17.926 441.292 C 20.536 443.733,24.507 444.399,25.967 442.640 C 27.088 441.289,25.655 440.379,20.522 439.182 C 11.842 437.158,8.001 431.981,10.836 426.126 C 14.136 419.309,27.714 418.114,33.713 424.113 C 34.564 424.964,35.069 425.303,34.835 424.866 C 32.789 421.043,23.887 418.491,17.894 420.009 M61.400 420.033 C 60.520 420.254,59.475 420.351,59.077 420.249 C 58.641 420.137,58.418 420.249,58.515 420.531 C 58.680 421.016,59.496 421.022,64.116 420.570 C 68.711 420.121,72.999 422.218,74.400 425.599 C 74.679 426.274,74.987 426.747,75.083 426.650 C 75.835 425.899,71.953 421.528,69.686 420.573 C 67.818 419.785,63.502 419.504,61.400 420.033 M97.800 419.947 C 84.635 423.409,82.311 443.182,94.303 449.708 C 103.691 454.818,118.569 448.941,113.400 442.164 C 112.113 440.478,112.140 440.155,113.632 439.384 C 115.963 438.178,116.678 433.501,115.177 429.280 C 114.471 427.295,114.391 427.913,115.033 430.388 C 116.983 437.906,115.511 439.314,105.795 439.231 C 98.795 439.171,97.851 439.426,98.761 441.126 C 99.914 443.282,103.476 443.634,107.273 441.968 C 113.845 439.084,116.951 445.862,110.551 449.122 C 102.203 453.374,92.316 450.376,88.672 442.487 C 87.285 439.486,87.392 431.871,88.864 428.730 C 93.059 419.782,104.975 417.337,111.685 424.047 C 112.747 425.109,113.442 425.653,113.229 425.255 C 111.106 421.287,103.133 418.544,97.800 419.947 M293.980 420.119 C 277.749 424.725,281.533 451.784,298.400 451.722 C 304.057 451.700,311.600 446.956,311.600 443.418 C 311.600 443.212,311.090 443.847,310.467 444.830 C 304.399 454.398,289.590 452.752,285.581 442.064 C 284.355 438.795,284.382 432.347,285.637 428.990 C 289.849 417.719,307.280 417.387,311.550 428.497 C 311.995 429.654,312.364 430.330,312.370 430.000 C 312.495 423.784,301.633 417.948,293.980 420.119 M168.044 420.549 C 165.422 422.027,165.255 426.969,167.770 428.617 C 168.473 429.078,170.129 429.356,173.256 429.538 C 175.817 429.688,177.796 429.981,177.875 430.223 C 178.005 430.613,174.293 435.110,169.474 440.400 C 166.658 443.493,166.001 444.707,166.014 446.800 C 166.038 450.665,166.898 450.961,178.581 451.134 C 192.645 451.342,195.234 450.841,195.184 447.918 C 195.171 447.113,195.102 447.154,194.626 448.246 C 193.766 450.222,192.640 450.400,181.000 450.400 C 167.962 450.400,167.200 450.190,167.200 446.606 C 167.200 444.466,167.841 443.506,173.778 436.757 C 180.798 428.777,180.807 428.916,173.265 428.712 C 169.292 428.604,169.092 428.556,168.165 427.478 C 166.185 425.175,167.125 421.592,169.912 420.818 C 172.035 420.228,190.219 420.314,191.990 420.923 C 195.323 422.068,195.139 425.568,191.518 429.890 C 189.936 431.778,189.941 431.776,191.948 429.685 C 194.976 426.528,195.650 422.857,193.551 420.955 C 192.455 419.962,169.726 419.601,168.044 420.549 M326.314 420.621 C 323.876 421.945,323.451 440.071,325.741 445.055 C 328.415 450.875,334.050 453.134,340.114 450.816 C 342.025 450.086,342.646 450.007,343.674 450.366 C 346.314 451.286,349.934 450.927,351.246 449.615 L 352.431 448.430 352.316 435.226 C 352.180 419.761,352.360 420.393,348.015 420.079 C 342.562 419.684,342.252 420.271,342.000 431.490 C 341.776 441.445,341.676 441.778,338.767 442.250 C 335.635 442.759,335.430 442.157,335.186 431.736 C 335.068 426.711,334.821 422.278,334.637 421.885 C 333.807 420.108,328.691 419.331,326.314 420.621 M333.600 421.846 C 334.595 422.812,334.601 422.865,334.800 431.768 C 335.040 442.486,335.674 443.888,339.770 442.757 C 342.395 442.032,342.575 441.351,342.800 431.282 C 342.994 422.592,343.027 422.306,343.901 421.599 C 345.981 419.917,350.468 420.391,351.483 422.400 C 352.532 424.477,352.186 447.739,351.087 449.017 C 349.932 450.360,347.382 450.694,344.677 449.859 C 342.854 449.295,342.611 449.315,339.985 450.232 C 332.713 452.773,326.992 449.161,325.597 441.150 C 324.721 436.122,325.231 423.042,326.349 421.853 C 327.963 420.137,331.836 420.133,333.600 421.846 M215.194 423.624 C 214.552 426.008,214.814 438.320,215.530 439.400 L 216.060 440.200 215.751 439.400 C 215.246 438.094,215.088 425.468,215.556 423.774 C 215.788 422.933,215.905 422.172,215.815 422.082 C 215.726 421.993,215.446 422.686,215.194 423.624 M35.594 428.100 C 35.578 431.462,30.338 432.573,27.301 429.858 C 24.060 426.960,20.000 426.705,20.000 429.400 C 20.000 430.653,20.940 431.140,25.184 432.085 C 30.591 433.290,33.529 434.952,35.255 437.783 C 35.663 438.452,35.997 438.820,35.997 438.600 C 35.997 437.700,34.320 435.547,32.713 434.383 C 30.518 432.793,30.558 432.401,32.974 431.787 C 34.059 431.512,35.184 430.962,35.474 430.567 C 35.968 429.891,36.235 426.800,35.800 426.800 C 35.690 426.800,35.597 427.385,35.594 428.100 M25.304 429.643 C 26.951 431.290,26.179 431.809,23.223 431.042 C 20.858 430.428,20.189 429.927,20.534 429.027 C 20.989 427.843,23.878 428.216,25.304 429.643 M60.500 428.812 C 59.195 429.337,59.370 429.416,61.515 429.267 C 65.248 429.008,65.364 429.290,65.615 439.264 C 65.889 450.108,66.261 450.877,71.218 450.853 C 76.106 450.830,76.425 450.105,76.319 439.274 L 76.237 431.000 76.019 439.659 C 75.769 449.545,75.699 449.756,72.514 450.234 C 67.250 451.023,66.665 449.967,66.407 439.200 C 66.293 434.470,66.043 430.357,65.851 430.059 C 65.031 428.788,62.201 428.129,60.500 428.812 M100.126 428.803 C 97.881 429.708,98.234 431.547,100.717 431.880 C 103.437 432.244,105.200 431.738,105.200 430.592 C 105.200 428.924,102.334 427.913,100.126 428.803 M296.948 428.961 C 296.259 429.269,295.555 429.750,295.382 430.030 C 295.206 430.313,295.490 430.242,296.023 429.869 C 300.101 427.013,303.580 431.800,302.267 438.459 C 301.406 442.824,296.668 443.742,294.984 439.870 C 294.680 439.171,294.424 438.842,294.416 439.138 C 294.312 442.704,299.857 444.210,302.001 441.198 C 305.832 435.818,302.057 426.674,296.948 428.961 M376.600 428.763 C 376.160 428.951,375.440 429.523,375.000 430.033 L 374.200 430.960 375.354 430.080 C 378.741 427.497,380.800 429.565,380.800 435.549 C 380.800 440.621,380.694 441.027,379.171 441.815 C 377.504 442.677,376.867 442.547,375.360 441.040 C 374.612 440.292,374.000 439.856,374.000 440.071 C 374.000 442.537,378.824 443.638,380.564 441.569 C 382.059 439.793,382.155 431.475,380.700 429.822 C 379.717 428.704,377.858 428.224,376.600 428.763 M103.385 429.739 C 104.494 430.550,103.773 431.200,101.764 431.200 C 100.493 431.200,99.904 431.015,99.729 430.560 C 99.244 429.296,101.949 428.689,103.385 429.739 M187.759 434.100 C 179.981 442.210,180.013 442.784,188.246 442.795 C 193.098 442.800,194.745 443.433,194.846 445.329 C 194.881 445.973,194.939 446.023,195.072 445.521 C 195.681 443.207,193.073 442.000,187.462 442.000 C 181.036 442.000,180.968 442.455,188.731 433.530 C 190.640 431.336,190.114 431.644,187.759 434.100 M226.093 436.599 C 225.178 436.997,224.563 437.683,224.045 438.884 C 222.579 442.279,220.134 443.211,217.400 441.417 L 215.800 440.368 217.106 441.584 C 219.607 443.911,223.057 443.017,224.806 439.589 C 226.409 436.447,231.797 435.584,233.730 438.160 C 233.944 438.444,234.006 438.388,233.907 438.000 C 233.470 436.302,228.732 435.452,226.093 436.599 M234.093 440.000 C 234.093 440.770,234.175 441.085,234.276 440.700 C 234.376 440.315,234.376 439.685,234.276 439.300 C 234.175 438.915,234.093 439.230,234.093 440.000 M23.000 440.544 C 24.161 440.893,24.600 441.241,24.600 441.813 C 24.600 443.029,20.959 443.155,19.477 441.989 C 17.182 440.184,19.140 439.381,23.000 440.544 M107.373 440.356 C 107.770 440.999,105.441 442.147,103.400 442.314 C 101.355 442.482,98.866 441.265,99.420 440.368 C 99.712 439.895,107.081 439.884,107.373 440.356 M265.600 440.635 C 265.600 441.739,266.747 442.462,268.982 442.765 C 270.818 443.014,271.549 443.325,272.271 444.165 C 272.782 444.759,273.200 445.065,273.200 444.845 C 273.200 443.550,271.279 442.272,269.055 442.088 C 267.330 441.945,266.632 441.695,266.187 441.060 C 265.864 440.599,265.600 440.408,265.600 440.635 M148.600 442.220 C 149.260 442.519,150.435 442.772,151.211 442.782 C 151.987 442.792,153.067 443.103,153.611 443.472 L 154.600 444.145 153.845 443.280 C 153.118 442.447,152.474 442.259,149.000 441.859 L 147.400 441.675 148.600 442.220 " stroke="none" fill="#3c437c" fill-rule="evenodd"></path></g></svg>