<?xml version="1.0" encoding="utf-8"?>
<svg viewBox="51.357 193.883 297.538 81.361" xmlns="http://www.w3.org/2000/svg">
  <path d="M 163.628 222.43 C 165.971 224.773 165.971 228.572 163.628 230.915 L 121.057 273.487 C 118.714 275.83 114.915 275.83 112.572 273.487 L 85.782 246.697 C 83.439 244.354 83.439 240.554 85.782 238.211 L 128.353 195.64 C 130.696 193.297 134.495 193.297 136.838 195.64 L 163.628 222.43 Z" style="fill: rgb(42, 58, 83); --darkreader-inline-fill:#c3daf1;" data-darkreader-inline-fill=""/>
  <path d="M 130.96 222.43 C 133.303 224.773 133.303 228.572 130.96 230.915 L 88.389 273.487 C 86.046 275.83 82.247 275.83 79.904 273.487 L 53.114 246.697 C 50.771 244.354 50.771 240.554 53.114 238.211 L 95.685 195.64 C 98.028 193.297 101.827 193.297 104.17 195.64 L 130.96 222.43 Z" style="fill: rgb(76, 86, 131); fill-opacity: 0.87; paint-order: stroke; fill-rule: nonzero; --darkreader-inline-fill:#a0b7d5;" data-darkreader-inline-fill=""/>
  <path d="M 180.715 243.836 C 185.959 243.836 188.186 242.532 188.186 239.456 C 188.186 237.171 186.853 235.867 183.659 235.091 L 180.876 234.417 C 178.781 233.919 177.888 233.201 177.888 232.117 C 177.888 230.315 179.646 229.554 183.82 229.554 C 184.86 229.554 185.974 229.612 187.556 229.759 L 187.775 228.016 C 186.34 227.811 185.271 227.723 183.908 227.723 C 178.269 227.723 175.881 229.026 175.881 232.161 C 175.881 234.212 177.155 235.413 180.173 236.175 L 183.659 237.054 C 185.417 237.493 186.179 238.24 186.179 239.471 C 186.179 241.243 184.538 242.005 180.715 242.005 C 179.323 242.005 177.888 241.858 175.881 241.536 L 175.647 243.397 C 176.921 243.704 178.444 243.836 180.715 243.836 Z M 203.629 243.543 L 205.578 243.543 L 205.578 233.436 C 205.578 229.803 203.571 227.723 200.084 227.723 C 197.448 227.723 195.954 228.748 195.514 230.828 L 195.338 230.828 L 195.338 221.57 L 193.39 221.57 L 193.39 243.543 L 195.338 243.543 L 195.338 234.769 C 195.338 231.238 196.891 229.495 199.923 229.495 C 202.252 229.495 203.629 230.901 203.629 233.392 Z M 218.423 243.836 C 219.815 243.836 221.353 243.704 222.715 243.426 L 222.437 241.624 C 221.251 241.888 219.932 242.034 218.775 242.034 C 214.908 242.034 212.593 240.027 212.271 236.453 L 223.389 236.453 C 223.448 236.043 223.477 235.501 223.477 234.93 C 223.477 230.33 221.148 227.723 217.134 227.723 C 212.828 227.723 210.352 230.608 210.352 235.633 C 210.352 240.862 213.282 243.836 218.423 243.836 Z M 212.271 234.783 C 212.52 231.443 214.278 229.524 217.164 229.524 C 219.976 229.524 221.602 231.429 221.602 234.783 Z M 237.641 243.836 C 238.974 243.836 240.073 243.689 241.347 243.323 L 241.128 241.536 C 239.882 241.858 238.974 242.005 238.125 242.005 C 235.444 242.005 234.389 240.76 234.389 238.123 L 234.389 221.57 L 227.519 221.57 L 227.519 223.357 L 232.426 223.357 L 232.426 238.167 C 232.426 242.02 234.096 243.836 237.641 243.836 Z M 246.063 243.543 L 258.368 243.543 L 258.368 241.741 L 248.348 241.741 L 258.075 229.817 L 258.075 228.016 L 246.063 228.016 L 246.063 229.817 L 255.819 229.817 L 246.063 241.741 Z M 271.858 243.836 C 273.733 243.836 275.55 243.484 277.307 242.752 L 276.839 241.023 C 275.286 241.712 273.762 242.064 272.166 242.064 C 266.995 242.064 264.387 239.031 264.387 232.967 C 264.387 227.386 267.2 224.222 271.536 224.222 C 273.352 224.222 274.993 225.042 276.004 226.448 L 277.351 225.071 C 276.414 223.401 274.275 222.449 271.507 222.449 C 265.706 222.449 262.395 226.346 262.395 233.113 C 262.395 240.262 265.574 243.836 271.858 243.836 Z M 290.373 243.836 C 291.706 243.836 292.805 243.689 294.079 243.323 L 293.859 241.536 C 292.614 241.858 291.706 242.005 290.856 242.005 C 288.176 242.005 287.121 240.76 287.121 238.123 L 287.121 221.57 L 280.251 221.57 L 280.251 223.357 L 285.158 223.357 L 285.158 238.167 C 285.158 242.02 286.828 243.836 290.373 243.836 Z M 304.947 243.836 C 309.093 243.836 311.51 240.906 311.51 235.779 C 311.51 230.652 309.093 227.723 304.947 227.723 C 300.802 227.723 298.385 230.652 298.385 235.779 C 298.385 240.906 300.802 243.836 304.947 243.836 Z M 304.947 242.005 C 302.047 242.005 300.392 239.749 300.392 235.779 C 300.392 231.81 302.047 229.554 304.947 229.554 C 307.848 229.554 309.503 231.81 309.503 235.779 C 309.503 239.749 307.848 242.005 304.947 242.005 Z M 321.484 243.836 C 323.843 243.836 325.527 242.649 326.084 240.555 L 326.333 240.555 L 326.494 243.689 L 330.317 243.543 L 330.317 242.093 L 328.179 241.888 L 328.179 228.016 L 326.231 228.016 L 326.231 236.365 C 326.231 240.438 324.736 242.005 321.88 242.005 C 319.478 242.005 318.057 240.672 318.057 238.27 L 318.057 228.016 L 316.108 228.016 L 316.108 238.27 C 316.108 241.814 318.057 243.836 321.484 243.836 Z M 339.14 243.836 C 342.07 243.836 343.696 242.444 344.091 240.159 L 344.252 240.159 L 344.545 243.689 L 346.186 243.587 L 346.186 221.57 L 344.238 221.57 L 344.238 231.282 L 344.062 231.282 C 343.652 228.968 341.938 227.723 339.199 227.723 C 335.082 227.723 332.944 230.535 332.944 235.926 C 332.944 241.126 335.068 243.836 339.14 243.836 Z M 344.238 236.014 C 344.238 239.983 342.641 242.064 339.565 242.064 C 336.503 242.064 334.907 239.954 334.907 235.926 C 334.907 231.692 336.489 229.495 339.55 229.495 C 342.626 229.495 344.238 231.575 344.238 235.56 Z" style="fill: rgb(229, 222, 230); white-space: pre;"/>
</svg>